<mxfile modified="2022-10-24T08:02:03.034Z" host="app.diagrams.net" agent="5.0 (Windows NT 10.0; Win64; x64) AppleWebKit/537.36 (KHTML, like Gecko) Chrome/106.0.0.0 Safari/537.36" etag="sFQGkBaPTMdf4t05uiAe" version="20.4.2" type="github" pages="2">
  <diagram id="Ht1M8jgEwFfnCIfOTk4-" name="Default">
    <mxGraphModel dx="2591" dy="851" grid="1" gridSize="10" guides="1" tooltips="1" connect="1" arrows="1" fold="1" page="1" pageScale="1" pageWidth="1169" pageHeight="827" math="0" shadow="0">
      <root>
        <mxCell id="0" />
        <mxCell id="1" parent="0" />
        <mxCell id="UEzPUAAOIrF-is8g5C7q-107" value="" style="rounded=0;whiteSpace=wrap;html=1;labelBackgroundColor=none;fillColor=none;dashed=1;container=1;pointerEvents=0;collapsible=0;recursiveResize=0;" parent="1" vertex="1">
          <mxGeometry x="340" y="290" width="410" height="130" as="geometry" />
        </mxCell>
        <mxCell id="zEZLAtN-QNjEZFmNs1Eo-10" value="" style="shape=image;verticalLabelPosition=bottom;labelBackgroundColor=default;verticalAlign=top;aspect=fixed;imageAspect=0;image=data:image/png,iVBORw0KGgoAAAANSUhEUgAAADUAAAAnCAMAAAHvIcBEAAAAAXNSR0IArs4c6QAAAARnQU1BAACxjwv8YQUAAABjUExURQAAACBAgCBQgCBKgCBIgCBGgCBKeiBJeyBIfCBKfCBJfCBIfSBIfSBKfSBJfSBIfSBKfh5KfR5JfR5JfR5KfR9JfR9JfR9IfR9JfR9Jfh9Jfh9KfR9JfR9JfR9JfR9JfR9JfWp5Ms8AAAAgdFJOUwAIEBggKDA4QEhQWGBocHiAh4+Xn6evt7/Hz9ff5+/3v+H4wgAAAAlwSFlzAAAXEQAAFxEByibzPwAAAldJREFUOE+FlYmWgjAMRVMRRWUY3KAiS/7/K+c1KbRF5njPgW50yUtSCFj3IrpoITD1rnhKA7B7+e+IDnikx3F1Lw5tUFZE54dvcK3lj/viTIQxcLi5GpqBXzxcF0K9LFfYk68B17uMaEXf17l3xLZ+Q+HhPjBaI5qSsTKsBSbCkRZeMJ71LMXU+U5HwTzeB+bStwMHznzNcGIY3TjZiGdpqOPc1wI7Hl3B4o7XzZ8BkgyuI8dKVtwiTYUHtaTuybbSMxZSOIpJCowR76W6xsjknnfSijGsk0E1ckIsllJbexWl17yYrWWWiErhQSe8Y30EXjRvV2OHqM0aTEr+imXPuDv6qsH+c13In6zG7vgtHQkNS3wvsR/jgvgmB9gPpXdMcXmL2lNDLNsEQ7MniT92c36EHOuY1Pfz0JJdDlV3Hjo9gq61moyhxKQA9rotXksZIOqG48DFbZSFwAzULMY5DX1uKlXDSzjlrQ8KT6p2wrnz3zAPP77vCyW+7UsNTnNx8zeOuQJz+jTYDc74ZV7Dw0YKWO43o9rThkhNwGKb046qlabpJ1cZ7aI7Dx6FzeN1O3cDpuxjo5Fw9tOaTXA9qYnZFB3aVA0WXDG0v2FRWIJM2U3BGNNFkZpQB2lhYk4P3FkzjfxCViC8IOw5iGvZ4o66+xba7n+xpuhHRNUpZGCJG+wdOT4bPi9u5TiGu/gHs+7RCZHuzer+E6Y2jnQLIcy0nWD/Ujk1nPJL/sNz2wSrIKFcdQZX65YMW1zg3Dk69i6iqm/hIREV/UnA8d/DRfR6yxH9AQb6OA4CAa15AAAAAElFTkSuQmCC;" vertex="1" parent="UEzPUAAOIrF-is8g5C7q-107">
          <mxGeometry x="63.5" y="38" width="53" height="39" as="geometry" />
        </mxCell>
        <mxCell id="zEZLAtN-QNjEZFmNs1Eo-11" value="DB - Master&lt;br&gt;(ECS/RDS)" style="text;html=1;align=center;verticalAlign=middle;resizable=0;points=[];autosize=1;strokeColor=none;fillColor=none;" vertex="1" parent="UEzPUAAOIrF-is8g5C7q-107">
          <mxGeometry x="45" y="72" width="90" height="40" as="geometry" />
        </mxCell>
        <mxCell id="zEZLAtN-QNjEZFmNs1Eo-12" value="DB - Slave&lt;br&gt;(ECS/RDS)" style="text;html=1;align=center;verticalAlign=middle;resizable=0;points=[];autosize=1;strokeColor=none;fillColor=none;" vertex="1" parent="UEzPUAAOIrF-is8g5C7q-107">
          <mxGeometry x="272" y="72" width="80" height="40" as="geometry" />
        </mxCell>
        <mxCell id="zEZLAtN-QNjEZFmNs1Eo-13" value="" style="shape=image;verticalLabelPosition=bottom;labelBackgroundColor=default;verticalAlign=top;aspect=fixed;imageAspect=0;image=data:image/png,iVBORw0KGgoAAAANSUhEUgAAADUAAAAnCAMAAAHvIcBEAAAAAXNSR0IArs4c6QAAAARnQU1BAACxjwv8YQUAAABjUExURQAAACBAgCBQgCBKgCBIgCBGgCBKeiBJeyBIfCBKfCBJfCBIfSBIfSBKfSBJfSBIfSBKfh5KfR5JfR5JfR5KfR9JfR9JfR9IfR9JfR9Jfh9Jfh9KfR9JfR9JfR9JfR9JfR9JfWp5Ms8AAAAgdFJOUwAIEBggKDA4QEhQWGBocHiAh4+Xn6evt7/Hz9ff5+/3v+H4wgAAAAlwSFlzAAAXEQAAFxEByibzPwAAAldJREFUOE+FlYmWgjAMRVMRRWUY3KAiS/7/K+c1KbRF5njPgW50yUtSCFj3IrpoITD1rnhKA7B7+e+IDnikx3F1Lw5tUFZE54dvcK3lj/viTIQxcLi5GpqBXzxcF0K9LFfYk68B17uMaEXf17l3xLZ+Q+HhPjBaI5qSsTKsBSbCkRZeMJ71LMXU+U5HwTzeB+bStwMHznzNcGIY3TjZiGdpqOPc1wI7Hl3B4o7XzZ8BkgyuI8dKVtwiTYUHtaTuybbSMxZSOIpJCowR76W6xsjknnfSijGsk0E1ckIsllJbexWl17yYrWWWiErhQSe8Y30EXjRvV2OHqM0aTEr+imXPuDv6qsH+c13In6zG7vgtHQkNS3wvsR/jgvgmB9gPpXdMcXmL2lNDLNsEQ7MniT92c36EHOuY1Pfz0JJdDlV3Hjo9gq61moyhxKQA9rotXksZIOqG48DFbZSFwAzULMY5DX1uKlXDSzjlrQ8KT6p2wrnz3zAPP77vCyW+7UsNTnNx8zeOuQJz+jTYDc74ZV7Dw0YKWO43o9rThkhNwGKb046qlabpJ1cZ7aI7Dx6FzeN1O3cDpuxjo5Fw9tOaTXA9qYnZFB3aVA0WXDG0v2FRWIJM2U3BGNNFkZpQB2lhYk4P3FkzjfxCViC8IOw5iGvZ4o66+xba7n+xpuhHRNUpZGCJG+wdOT4bPi9u5TiGu/gHs+7RCZHuzer+E6Y2jnQLIcy0nWD/Ujk1nPJL/sNz2wSrIKFcdQZX65YMW1zg3Dk69i6iqm/hIREV/UnA8d/DRfR6yxH9AQb6OA4CAa15AAAAAElFTkSuQmCC;" vertex="1" parent="UEzPUAAOIrF-is8g5C7q-107">
          <mxGeometry x="285.5" y="38" width="53" height="39" as="geometry" />
        </mxCell>
        <mxCell id="zEZLAtN-QNjEZFmNs1Eo-18" value="FTP&lt;br&gt;(ECS/OBS)" style="text;html=1;align=center;verticalAlign=middle;resizable=0;points=[];autosize=1;strokeColor=none;fillColor=none;" vertex="1" parent="UEzPUAAOIrF-is8g5C7q-107">
          <mxGeometry x="50" y="211" width="80" height="40" as="geometry" />
        </mxCell>
        <mxCell id="zEZLAtN-QNjEZFmNs1Eo-19" value="" style="shape=image;verticalLabelPosition=bottom;labelBackgroundColor=default;verticalAlign=top;aspect=fixed;imageAspect=0;image=data:image/png,iVBORw0KGgoAAAANSUhEUgAAADUAAAAnCAMAAAHvIcBEAAAAAXNSR0IArs4c6QAAAARnQU1BAACxjwv8YQUAAABjUExURQAAACBAgCBQgCBKgCBIgCBGgCBKeiBJeyBIfCBKfCBJfCBIfSBIfSBKfSBJfSBIfSBKfh5KfR5JfR5JfR5KfR9JfR9JfR9IfR9JfR9Jfh9Jfh9KfR9JfR9JfR9JfR9JfR9JfWp5Ms8AAAAgdFJOUwAIEBggKDA4QEhQWGBocHiAh4+Xn6evt7/Hz9ff5+/3v+H4wgAAAAlwSFlzAAAXEQAAFxEByibzPwAAAldJREFUOE+FlYmWgjAMRVMRRWUY3KAiS/7/K+c1KbRF5njPgW50yUtSCFj3IrpoITD1rnhKA7B7+e+IDnikx3F1Lw5tUFZE54dvcK3lj/viTIQxcLi5GpqBXzxcF0K9LFfYk68B17uMaEXf17l3xLZ+Q+HhPjBaI5qSsTKsBSbCkRZeMJ71LMXU+U5HwTzeB+bStwMHznzNcGIY3TjZiGdpqOPc1wI7Hl3B4o7XzZ8BkgyuI8dKVtwiTYUHtaTuybbSMxZSOIpJCowR76W6xsjknnfSijGsk0E1ckIsllJbexWl17yYrWWWiErhQSe8Y30EXjRvV2OHqM0aTEr+imXPuDv6qsH+c13In6zG7vgtHQkNS3wvsR/jgvgmB9gPpXdMcXmL2lNDLNsEQ7MniT92c36EHOuY1Pfz0JJdDlV3Hjo9gq61moyhxKQA9rotXksZIOqG48DFbZSFwAzULMY5DX1uKlXDSzjlrQ8KT6p2wrnz3zAPP77vCyW+7UsNTnNx8zeOuQJz+jTYDc74ZV7Dw0YKWO43o9rThkhNwGKb046qlabpJ1cZ7aI7Dx6FzeN1O3cDpuxjo5Fw9tOaTXA9qYnZFB3aVA0WXDG0v2FRWIJM2U3BGNNFkZpQB2lhYk4P3FkzjfxCViC8IOw5iGvZ4o66+xba7n+xpuhHRNUpZGCJG+wdOT4bPi9u5TiGu/gHs+7RCZHuzer+E6Y2jnQLIcy0nWD/Ujk1nPJL/sNz2wSrIKFcdQZX65YMW1zg3Dk69i6iqm/hIREV/UnA8d/DRfR6yxH9AQb6OA4CAa15AAAAAElFTkSuQmCC;" vertex="1" parent="UEzPUAAOIrF-is8g5C7q-107">
          <mxGeometry x="63.5" y="177" width="53" height="39" as="geometry" />
        </mxCell>
        <mxCell id="zEZLAtN-QNjEZFmNs1Eo-16" value="Messages Sight" style="text;html=1;align=center;verticalAlign=middle;resizable=0;points=[];autosize=1;strokeColor=none;fillColor=none;" vertex="1" parent="UEzPUAAOIrF-is8g5C7q-107">
          <mxGeometry x="35" y="326" width="110" height="30" as="geometry" />
        </mxCell>
        <mxCell id="zEZLAtN-QNjEZFmNs1Eo-17" value="" style="shape=image;verticalLabelPosition=bottom;labelBackgroundColor=default;verticalAlign=top;aspect=fixed;imageAspect=0;image=data:image/png,iVBORw0KGgoAAAANSUhEUgAAADUAAAAnCAMAAAHvIcBEAAAAAXNSR0IArs4c6QAAAARnQU1BAACxjwv8YQUAAABjUExURQAAACBAgCBQgCBKgCBIgCBGgCBKeiBJeyBIfCBKfCBJfCBIfSBIfSBKfSBJfSBIfSBKfh5KfR5JfR5JfR5KfR9JfR9JfR9IfR9JfR9Jfh9Jfh9KfR9JfR9JfR9JfR9JfR9JfWp5Ms8AAAAgdFJOUwAIEBggKDA4QEhQWGBocHiAh4+Xn6evt7/Hz9ff5+/3v+H4wgAAAAlwSFlzAAAXEQAAFxEByibzPwAAAldJREFUOE+FlYmWgjAMRVMRRWUY3KAiS/7/K+c1KbRF5njPgW50yUtSCFj3IrpoITD1rnhKA7B7+e+IDnikx3F1Lw5tUFZE54dvcK3lj/viTIQxcLi5GpqBXzxcF0K9LFfYk68B17uMaEXf17l3xLZ+Q+HhPjBaI5qSsTKsBSbCkRZeMJ71LMXU+U5HwTzeB+bStwMHznzNcGIY3TjZiGdpqOPc1wI7Hl3B4o7XzZ8BkgyuI8dKVtwiTYUHtaTuybbSMxZSOIpJCowR76W6xsjknnfSijGsk0E1ckIsllJbexWl17yYrWWWiErhQSe8Y30EXjRvV2OHqM0aTEr+imXPuDv6qsH+c13In6zG7vgtHQkNS3wvsR/jgvgmB9gPpXdMcXmL2lNDLNsEQ7MniT92c36EHOuY1Pfz0JJdDlV3Hjo9gq61moyhxKQA9rotXksZIOqG48DFbZSFwAzULMY5DX1uKlXDSzjlrQ8KT6p2wrnz3zAPP77vCyW+7UsNTnNx8zeOuQJz+jTYDc74ZV7Dw0YKWO43o9rThkhNwGKb046qlabpJ1cZ7aI7Dx6FzeN1O3cDpuxjo5Fw9tOaTXA9qYnZFB3aVA0WXDG0v2FRWIJM2U3BGNNFkZpQB2lhYk4P3FkzjfxCViC8IOw5iGvZ4o66+xba7n+xpuhHRNUpZGCJG+wdOT4bPi9u5TiGu/gHs+7RCZHuzer+E6Y2jnQLIcy0nWD/Ujk1nPJL/sNz2wSrIKFcdQZX65YMW1zg3Dk69i6iqm/hIREV/UnA8d/DRfR6yxH9AQb6OA4CAa15AAAAAElFTkSuQmCC;" vertex="1" parent="UEzPUAAOIrF-is8g5C7q-107">
          <mxGeometry x="63.5" y="287" width="53" height="39" as="geometry" />
        </mxCell>
        <mxCell id="UEzPUAAOIrF-is8g5C7q-96" style="edgeStyle=orthogonalEdgeStyle;rounded=0;orthogonalLoop=1;jettySize=auto;html=1;endArrow=open;endFill=0;strokeWidth=2;startArrow=none;startFill=0;" parent="UEzPUAAOIrF-is8g5C7q-107" edge="1">
          <mxGeometry relative="1" as="geometry">
            <Array as="points">
              <mxPoint x="199.90999999999985" y="8" />
              <mxPoint x="89.90999999999985" y="8" />
            </Array>
            <mxPoint x="200.00090909090886" y="-24" as="sourcePoint" />
            <mxPoint x="90.00090909090886" y="38" as="targetPoint" />
          </mxGeometry>
        </mxCell>
        <mxCell id="UEzPUAAOIrF-is8g5C7q-97" style="edgeStyle=orthogonalEdgeStyle;rounded=0;orthogonalLoop=1;jettySize=auto;html=1;endArrow=classic;endFill=1;strokeWidth=2;startArrow=none;startFill=0;" parent="UEzPUAAOIrF-is8g5C7q-107" edge="1">
          <mxGeometry relative="1" as="geometry">
            <Array as="points">
              <mxPoint x="200" y="8" />
              <mxPoint x="311" y="8" />
            </Array>
            <mxPoint x="200" y="-20" as="sourcePoint" />
            <mxPoint x="310.9099999999994" y="38" as="targetPoint" />
          </mxGeometry>
        </mxCell>
        <mxCell id="UEzPUAAOIrF-is8g5C7q-88" value="" style="edgeStyle=orthogonalEdgeStyle;rounded=0;orthogonalLoop=1;jettySize=auto;html=1;endArrow=open;endFill=0;strokeWidth=2;exitX=1;exitY=0.5;exitDx=0;exitDy=0;" parent="1" source="zEZLAtN-QNjEZFmNs1Eo-36" target="zEZLAtN-QNjEZFmNs1Eo-15" edge="1">
          <mxGeometry relative="1" as="geometry">
            <mxPoint x="390.00000000000045" y="-60" as="sourcePoint" />
            <mxPoint x="432.0082725615316" y="-60" as="targetPoint" />
          </mxGeometry>
        </mxCell>
        <mxCell id="UEzPUAAOIrF-is8g5C7q-89" value="" style="edgeStyle=orthogonalEdgeStyle;rounded=0;orthogonalLoop=1;jettySize=auto;html=1;endArrow=open;endFill=0;strokeWidth=2;entryX=0;entryY=0.5;entryDx=0;entryDy=0;" parent="1" source="zEZLAtN-QNjEZFmNs1Eo-44" target="zEZLAtN-QNjEZFmNs1Eo-25" edge="1">
          <mxGeometry relative="1" as="geometry">
            <Array as="points">
              <mxPoint x="104" y="612" />
            </Array>
            <mxPoint x="-215.54545454545405" y="612" as="sourcePoint" />
            <mxPoint x="710" y="204.090909090909" as="targetPoint" />
          </mxGeometry>
        </mxCell>
        <mxCell id="UEzPUAAOIrF-is8g5C7q-105" value="Monitor template" style="edgeStyle=orthogonalEdgeStyle;rounded=0;orthogonalLoop=1;jettySize=auto;html=1;endArrow=open;endFill=0;strokeWidth=2;" parent="1" source="UEzPUAAOIrF-is8g5C7q-83" edge="1">
          <mxGeometry x="0.1208" y="-10" relative="1" as="geometry">
            <Array as="points">
              <mxPoint x="919" y="270" />
              <mxPoint x="519" y="270" />
            </Array>
            <mxPoint as="offset" />
            <mxPoint x="518.9999999999995" y="310" as="targetPoint" />
          </mxGeometry>
        </mxCell>
        <mxCell id="UEzPUAAOIrF-is8g5C7q-100" style="edgeStyle=orthogonalEdgeStyle;rounded=0;orthogonalLoop=1;jettySize=auto;html=1;endArrow=open;endFill=0;strokeWidth=2;entryX=0.5;entryY=0;entryDx=0;entryDy=0;" parent="1" target="zEZLAtN-QNjEZFmNs1Eo-19" edge="1">
          <mxGeometry relative="1" as="geometry">
            <mxPoint x="260" y="450" as="sourcePoint" />
            <mxPoint x="194.99336087341408" y="629" as="targetPoint" />
            <Array as="points">
              <mxPoint x="260" y="447" />
              <mxPoint x="430" y="447" />
            </Array>
          </mxGeometry>
        </mxCell>
        <mxCell id="zEZLAtN-QNjEZFmNs1Eo-2" value="" style="edgeStyle=orthogonalEdgeStyle;rounded=0;orthogonalLoop=1;jettySize=auto;html=1;" edge="1" parent="1" target="zEZLAtN-QNjEZFmNs1Eo-15">
          <mxGeometry relative="1" as="geometry">
            <mxPoint x="540" y="270" as="sourcePoint" />
            <mxPoint x="190" y="249" as="targetPoint" />
            <Array as="points">
              <mxPoint x="540" y="250" />
            </Array>
          </mxGeometry>
        </mxCell>
        <mxCell id="zEZLAtN-QNjEZFmNs1Eo-14" value="Web" style="text;html=1;align=center;verticalAlign=middle;resizable=0;points=[];autosize=1;strokeColor=none;fillColor=none;" vertex="1" parent="1">
          <mxGeometry x="105" y="268" width="50" height="30" as="geometry" />
        </mxCell>
        <mxCell id="zEZLAtN-QNjEZFmNs1Eo-15" value="" style="shape=image;verticalLabelPosition=bottom;labelBackgroundColor=default;verticalAlign=top;aspect=fixed;imageAspect=0;image=data:image/png,iVBORw0KGgoAAAANSUhEUgAAADUAAAAnCAMAAAHvIcBEAAAAAXNSR0IArs4c6QAAAARnQU1BAACxjwv8YQUAAABjUExURQAAACBAgCBQgCBKgCBIgCBGgCBKeiBJeyBIfCBKfCBJfCBIfSBIfSBKfSBJfSBIfSBKfh5KfR5JfR5JfR5KfR9JfR9JfR9IfR9JfR9Jfh9Jfh9KfR9JfR9JfR9JfR9JfR9JfWp5Ms8AAAAgdFJOUwAIEBggKDA4QEhQWGBocHiAh4+Xn6evt7/Hz9ff5+/3v+H4wgAAAAlwSFlzAAAXEQAAFxEByibzPwAAAldJREFUOE+FlYmWgjAMRVMRRWUY3KAiS/7/K+c1KbRF5njPgW50yUtSCFj3IrpoITD1rnhKA7B7+e+IDnikx3F1Lw5tUFZE54dvcK3lj/viTIQxcLi5GpqBXzxcF0K9LFfYk68B17uMaEXf17l3xLZ+Q+HhPjBaI5qSsTKsBSbCkRZeMJ71LMXU+U5HwTzeB+bStwMHznzNcGIY3TjZiGdpqOPc1wI7Hl3B4o7XzZ8BkgyuI8dKVtwiTYUHtaTuybbSMxZSOIpJCowR76W6xsjknnfSijGsk0E1ckIsllJbexWl17yYrWWWiErhQSe8Y30EXjRvV2OHqM0aTEr+imXPuDv6qsH+c13In6zG7vgtHQkNS3wvsR/jgvgmB9gPpXdMcXmL2lNDLNsEQ7MniT92c36EHOuY1Pfz0JJdDlV3Hjo9gq61moyhxKQA9rotXksZIOqG48DFbZSFwAzULMY5DX1uKlXDSzjlrQ8KT6p2wrnz3zAPP77vCyW+7UsNTnNx8zeOuQJz+jTYDc74ZV7Dw0YKWO43o9rThkhNwGKb046qlabpJ1cZ7aI7Dx6FzeN1O3cDpuxjo5Fw9tOaTXA9qYnZFB3aVA0WXDG0v2FRWIJM2U3BGNNFkZpQB2lhYk4P3FkzjfxCViC8IOw5iGvZ4o66+xba7n+xpuhHRNUpZGCJG+wdOT4bPi9u5TiGu/gHs+7RCZHuzer+E6Y2jnQLIcy0nWD/Ujk1nPJL/sNz2wSrIKFcdQZX65YMW1zg3Dk69i6iqm/hIREV/UnA8d/DRfR6yxH9AQb6OA4CAa15AAAAAElFTkSuQmCC;" vertex="1" parent="1">
          <mxGeometry x="103.5" y="229" width="53" height="39" as="geometry" />
        </mxCell>
        <mxCell id="zEZLAtN-QNjEZFmNs1Eo-24" value="Jumphost" style="text;html=1;align=center;verticalAlign=middle;resizable=0;points=[];autosize=1;strokeColor=none;fillColor=none;" vertex="1" parent="1">
          <mxGeometry x="90" y="630.5" width="80" height="30" as="geometry" />
        </mxCell>
        <mxCell id="zEZLAtN-QNjEZFmNs1Eo-25" value="" style="shape=image;verticalLabelPosition=bottom;labelBackgroundColor=default;verticalAlign=top;aspect=fixed;imageAspect=0;image=data:image/png,iVBORw0KGgoAAAANSUhEUgAAADUAAAAnCAMAAAHvIcBEAAAAAXNSR0IArs4c6QAAAARnQU1BAACxjwv8YQUAAABjUExURQAAACBAgCBQgCBKgCBIgCBGgCBKeiBJeyBIfCBKfCBJfCBIfSBIfSBKfSBJfSBIfSBKfh5KfR5JfR5JfR5KfR9JfR9JfR9IfR9JfR9Jfh9Jfh9KfR9JfR9JfR9JfR9JfR9JfWp5Ms8AAAAgdFJOUwAIEBggKDA4QEhQWGBocHiAh4+Xn6evt7/Hz9ff5+/3v+H4wgAAAAlwSFlzAAAXEQAAFxEByibzPwAAAldJREFUOE+FlYmWgjAMRVMRRWUY3KAiS/7/K+c1KbRF5njPgW50yUtSCFj3IrpoITD1rnhKA7B7+e+IDnikx3F1Lw5tUFZE54dvcK3lj/viTIQxcLi5GpqBXzxcF0K9LFfYk68B17uMaEXf17l3xLZ+Q+HhPjBaI5qSsTKsBSbCkRZeMJ71LMXU+U5HwTzeB+bStwMHznzNcGIY3TjZiGdpqOPc1wI7Hl3B4o7XzZ8BkgyuI8dKVtwiTYUHtaTuybbSMxZSOIpJCowR76W6xsjknnfSijGsk0E1ckIsllJbexWl17yYrWWWiErhQSe8Y30EXjRvV2OHqM0aTEr+imXPuDv6qsH+c13In6zG7vgtHQkNS3wvsR/jgvgmB9gPpXdMcXmL2lNDLNsEQ7MniT92c36EHOuY1Pfz0JJdDlV3Hjo9gq61moyhxKQA9rotXksZIOqG48DFbZSFwAzULMY5DX1uKlXDSzjlrQ8KT6p2wrnz3zAPP77vCyW+7UsNTnNx8zeOuQJz+jTYDc74ZV7Dw0YKWO43o9rThkhNwGKb046qlabpJ1cZ7aI7Dx6FzeN1O3cDpuxjo5Fw9tOaTXA9qYnZFB3aVA0WXDG0v2FRWIJM2U3BGNNFkZpQB2lhYk4P3FkzjfxCViC8IOw5iGvZ4o66+xba7n+xpuhHRNUpZGCJG+wdOT4bPi9u5TiGu/gHs+7RCZHuzer+E6Y2jnQLIcy0nWD/Ujk1nPJL/sNz2wSrIKFcdQZX65YMW1zg3Dk69i6iqm/hIREV/UnA8d/DRfR6yxH9AQb6OA4CAa15AAAAAElFTkSuQmCC;" vertex="1" parent="1">
          <mxGeometry x="103.5" y="591.5" width="53" height="39" as="geometry" />
        </mxCell>
        <mxCell id="zEZLAtN-QNjEZFmNs1Eo-27" value="" style="rounded=0;whiteSpace=wrap;html=1;fillColor=none;" vertex="1" parent="1">
          <mxGeometry x="-80" y="130" width="1000" height="710" as="geometry" />
        </mxCell>
        <mxCell id="zEZLAtN-QNjEZFmNs1Eo-29" value="" style="edgeStyle=orthogonalEdgeStyle;rounded=0;orthogonalLoop=1;jettySize=auto;html=1;" edge="1" parent="1" target="zEZLAtN-QNjEZFmNs1Eo-15">
          <mxGeometry relative="1" as="geometry">
            <mxPoint x="260" y="560" as="sourcePoint" />
            <mxPoint x="160" y="260" as="targetPoint" />
            <Array as="points">
              <mxPoint x="260" y="260" />
            </Array>
          </mxGeometry>
        </mxCell>
        <mxCell id="zEZLAtN-QNjEZFmNs1Eo-31" style="edgeStyle=orthogonalEdgeStyle;rounded=0;orthogonalLoop=1;jettySize=auto;html=1;endArrow=open;endFill=0;strokeWidth=2;" edge="1" parent="1">
          <mxGeometry relative="1" as="geometry">
            <mxPoint x="430" y="559" as="sourcePoint" />
            <mxPoint x="650" y="579" as="targetPoint" />
            <Array as="points">
              <mxPoint x="650" y="559" />
            </Array>
          </mxGeometry>
        </mxCell>
        <mxCell id="zEZLAtN-QNjEZFmNs1Eo-32" style="edgeStyle=orthogonalEdgeStyle;rounded=0;orthogonalLoop=1;jettySize=auto;html=1;endArrow=open;endFill=0;strokeWidth=2;entryX=0.5;entryY=0;entryDx=0;entryDy=0;" edge="1" parent="1">
          <mxGeometry relative="1" as="geometry">
            <mxPoint x="260" y="447" as="sourcePoint" />
            <mxPoint x="430" y="466.5" as="targetPoint" />
            <Array as="points">
              <mxPoint x="260" y="446.5" />
              <mxPoint x="430" y="446.5" />
            </Array>
          </mxGeometry>
        </mxCell>
        <mxCell id="zEZLAtN-QNjEZFmNs1Eo-33" style="edgeStyle=orthogonalEdgeStyle;rounded=0;orthogonalLoop=1;jettySize=auto;html=1;endArrow=open;endFill=0;strokeWidth=2;" edge="1" parent="1">
          <mxGeometry relative="1" as="geometry">
            <mxPoint x="540" y="251" as="sourcePoint" />
            <mxPoint x="857.04347826087" y="324" as="targetPoint" />
            <Array as="points">
              <mxPoint x="637" y="251" />
              <mxPoint x="857" y="251" />
            </Array>
          </mxGeometry>
        </mxCell>
        <mxCell id="zEZLAtN-QNjEZFmNs1Eo-34" style="edgeStyle=orthogonalEdgeStyle;rounded=0;orthogonalLoop=1;jettySize=auto;html=1;endArrow=open;endFill=0;strokeWidth=2;entryX=0.5;entryY=0;entryDx=0;entryDy=0;exitX=1;exitY=0.5;exitDx=0;exitDy=0;" edge="1" parent="1" source="zEZLAtN-QNjEZFmNs1Eo-43">
          <mxGeometry relative="1" as="geometry">
            <mxPoint x="260" y="559" as="sourcePoint" />
            <mxPoint x="430" y="579.5" as="targetPoint" />
            <Array as="points">
              <mxPoint x="130" y="423" />
              <mxPoint x="130" y="560" />
              <mxPoint x="430" y="560" />
            </Array>
          </mxGeometry>
        </mxCell>
        <mxCell id="zEZLAtN-QNjEZFmNs1Eo-36" value="" style="shape=image;verticalLabelPosition=bottom;labelBackgroundColor=default;verticalAlign=top;aspect=fixed;imageAspect=0;image=data:image/png,iVBORw0KGgoAAAANSUhEUgAAAC8AAAA0CAMAAAFa76FQAAAAAXNSR0IArs4c6QAAAARnQU1BAACxjwv8YQUAAABjUExURQAAAGCA31CPz1WK1ViP11OM0lWP1VeN1lSP01WO1VaM1lSO1FWN1VaO1VSN1FWO1VaN1VWO1VaP1lSO1VWP1VaO1lWP1VWO1VWP1lWO1VWO1VWO1VWO1VWO1VWO1VWO1VWO1aJ7xuEAAAAgdFJOUwAIEBggKDA4QEhQWGBocHiAh4+Xn6evt7/Hz9ff5+/3v+H4wgAAAAlwSFlzAAAXEQAAFxEByibzPwAAA1pJREFUOE+FVYmCqjAMLIeiK5eoHOXK/3/lmyRtAXX3za6FlLTNMUkN0PMwGpOcTWEGk7PosIg0qGBO7ikg+cfqq2lMxiqEP9mLMfFAogF0hSqbe8bji4eZh6We6rpOwm6CFr8bb2H9rE0wbAqy3oHMadG3hM78IBZFV8TkycLpqXMDjzixrhtjMlUzJpcNf/TkvJIHJCDVZfid2f0o4km3atWHSO4dUjTD9D0Smga6OiGgoVX2MiP58GKOOp30eGLGmAfioBhKs/os3MhkcvaM4Li4l7DX2LszytkJl9QblntxkSVGLnOXTdv2ihF8wNSFRxwEpJbPiMXYzhn0I19MREMlLyuMdZj0k8Du3oEHwUBEn4JbG0aS9H0iBc++oKc7CZEOOBHnY6BCRYdkJTUzI9LsMgqiQFqO94OfERHt68CY60IEmoJGDq0wmVEw8R2y1RQhCGG+ILANYes0d5hnZzIQxR2SiiKZmfV+wM5WOFrXPB+TaTgdScxKAOzlNBSzy1zJA4B5dtBiE5n3gel1KTGZmSDewJ6rXnUHqYBJk7/0bIbsrYY9U7VTUjNJhLTWFjna7qqi1McCTo5i7+Ss0MCaptNSUeoCEdXujZFSCGtK3i9+32UjDhVTHusKWRNLRjp0KsCCctdvzAIV3hL9gQoqRE8f/L+RgyYdVIv1/0sSsI1GiSMQ3VnaeHlExrr04uxtiCqcRjY/9Iw471h1ffqNj0ibmT+PtWwVD/xecHf9C9Gthd6coT6EMUeUa/taj6XGuCHe9Xtxnl80yWlpu96P3lQ0oaEIQQXVTGOTmnyrzvQx0RzY0tILVAg1Xjq9nT4jWqWHATOh3jri/sc4k5J9wzJisN5gMAP5K32bRnPzG3n0TJzK30UNd2ocF1jbKOE3iL51jIWi3BN3eK2I3w9g/cp7U7pIwmN/v9y0BgOgn60+lYu3o6LFe3AhtJWWL1yHjq8Owa6LDuKIILJjvMUz1cpnIE/B2GgOMUVUl9Xpx9YG/l9oV8vYleatNFK7cB9c2o3FqIRjHeBi3DeJc9vuCjxdKLjhkUy/lXWMG+bbl9iiYA+FxLgstH69dwBeMe8zEL1wef2mLbihXkdtcDGX++PjwHe4rsDV3783td/AXaH50nuM+Qc0LT8vwqsjAQAAAABJRU5ErkJggg==;" vertex="1" parent="1">
          <mxGeometry x="-10" y="223" width="47" height="52" as="geometry" />
        </mxCell>
        <mxCell id="zEZLAtN-QNjEZFmNs1Eo-37" value="" style="shape=image;verticalLabelPosition=bottom;labelBackgroundColor=default;verticalAlign=top;aspect=fixed;imageAspect=0;image=data:image/png,iVBORw0KGgoAAAANSUhEUgAAADQAAAA4CAMAAAHyYxs0AAAAAXNSR0IArs4c6QAAAARnQU1BAACxjwv8YQUAAABjUExURQAAAGCA31CPz1WK1ViP11OM0lWP1VeN1lSP01WO1VaM1lSO1FWN1VaO1VSN1FWO1VaN1VWO1VaP1lSO1VWP1VaO1lWP1VWO1VWP1lWO1VWO1VWO1VWO1VWO1VWO1VWO1VWO1aJ7xuEAAAAgdFJOUwAIEBggKDA4QEhQWGBocHiAh4+Xn6evt7/Hz9ff5+/3v+H4wgAAAAlwSFlzAAAXEQAAFxEByibzPwAAA3RJREFUOE+Vldm6qjAMhYOKIg7bWdwy5P2f8qyVtAUUt9/5L6BtmoE2CQLOfIgcRFSk8gkpCi6InERuJnPSYM4HZmHBNIsCLyx0wU7lwqijMvfhAq+sACK5Cp7wD6D1I1LbFrOIbXAPoWIGEejsmUyKrup7GJLg2HhcRC1KcDeFma7x1CMjNe9NQ3dJSWm32iOUfrayjQwE2+LOzJ6VrMw+Y2KE5YIzejrEnb/2DNGut/5uua82qwRHEDb0zFWfinN/5aJqTuShbfw2xKaqwbYz+1Vt4KB62nRb2ou4p0x5pmRwYD5cYf2D6IGz0n0/N3yoK5HS1IKVNHQ/yhPlHCZ4pSYKt6ObMM/sSDh0L6DtcGmJp2zTjQINyUAOtDLkqpYXuerM5mNusDa1DmaV5dwEd31Ma7mT+/uFLdSjkKXaCSQ2qp0nEcD1XcMwb1SrJCA7RMoarbXOObfMJZzIUTWP2dOfxm5pr7aKoou/iIehqTbeRXu7EXCxqgRlFC2l8UjftfAZHsAlhpi7iDXPpDJRwkQnLk+LrIWo5a2JLKFchChQWJbZFHWzEw+GopnZKuxJEbKIZii6uhuzSJEuTjRJUfjaG3eYr8IuAKKjK2ELvtpEDkQp3XL0lKdlp5GJNkGCbmahJjSaI1vdhREYZjJYq/cN5k0bRhGUg13cA1f4xgOK67DhFbQUS6QvbJCBqu2onfzNtkWzQWNdh/dXFuhi2iUPP/R3+FCNhilo03cxYwd/2p0mPrY4U6TtlAw3dukorc+pA8/Mvj4P3ls/kh/8pisEi6ivg9s9m+CFwXEX6DgnadQaXeAWq37EgzkZqaGA4MKMVBPXjtWBEprOCenFlhyh0rUagd/pUAkNqWRu+V/W+O4JH41SuadsBVSqw+cHsDJUaq0loq31p/fVU6lWLVk3SPqvSr+hxaJHpuT6plTEPo2jONoAJKU1aiNleK9UpSK1duxEJb/kJvxTkhLOO9V/o01o+VGpssypQ/5EpXk3SB+Us/9a+vBYiKlwg1LWGyd5p40VxV8HscSmgQ6MIO3Z7w7NRJUuOtYlyiGE04Nb63Ba2Sb8RgaUsI8U7QY5mtjjK6bWQYnK/dSZ1pBdR2GTWeVBfGSJbG1HnWUHQ/WocU/Bw+68WjJc+4uNj2Q/bD7nKzX+o8fiB3hXvcXkGiPyDwMqS9JxE6bQAAAAAElFTkSuQmCC;" vertex="1" parent="1">
          <mxGeometry x="-14" y="730" width="52" height="56" as="geometry" />
        </mxCell>
        <mxCell id="zEZLAtN-QNjEZFmNs1Eo-38" value="WAF" style="text;html=1;align=center;verticalAlign=middle;resizable=0;points=[];autosize=1;strokeColor=none;fillColor=none;" vertex="1" parent="1">
          <mxGeometry x="-10" y="275" width="50" height="30" as="geometry" />
        </mxCell>
        <mxCell id="zEZLAtN-QNjEZFmNs1Eo-39" value="HSS" style="text;html=1;align=center;verticalAlign=middle;resizable=0;points=[];autosize=1;strokeColor=none;fillColor=none;" vertex="1" parent="1">
          <mxGeometry x="-13" y="786" width="50" height="30" as="geometry" />
        </mxCell>
        <mxCell id="zEZLAtN-QNjEZFmNs1Eo-40" value="" style="shape=image;verticalLabelPosition=bottom;labelBackgroundColor=default;verticalAlign=top;aspect=fixed;imageAspect=0;image=data:image/png,iVBORw0KGgoAAAANSUhEUgAAADEAAAA2CAMAAAEuQLEAAAAAAXNSR0IArs4c6QAAAARnQU1BAACxjwv8YQUAAABjUExURQAAAGCA31CPz1WK1ViP11OM0lWP1VeN1lSP01WO1VaM1lSO1FWN1VaO1VSN1FWO1VaN1VWO1VaP1lSO1VWP1VaO1lWP1VWO1VWP1lWO1VWO1VWO1VWO1VWO1VWO1VWO1VWO1aJ7xuEAAAAgdFJOUwAIEBggKDA4QEhQWGBocHiAh4+Xn6evt7/Hz9ff5+/3v+H4wgAAAAlwSFlzAAAXEQAAFxEByibzPwAAA0ZJREFUOE+NVQkWojAMDYiA+wYIRST3P+X8pCkUxZn570m37JsEtPKhCr8T0ZFoJLrrlaHRL9uP3n4xYO+PB/xKsHKCi6qMiRJb5f110d3ZL4KTV+Yc0aA7ZR2gR3QBYN+otFQ+JngWn/DGdoLj3jYAaAIZq5KjHGdObKND4w+dHvTlJmYgLkwi9EokRmMplAQQg0D3UC7lxlbgvUshAEozPSgB4hMwKn2MgWuOCAxbZqgEdtHjfmSWgM/IcYP0PV52Bpr3FPhjayE0zEHinVl+AWfuU9Gr3XLrNPcFb2WhUohBqXYEcVnHT9tK7oHa0liBpvRbZ2Z1wYWQ/sFoESyeS0KcDVETJIziUDTsiyDCnW90mW1Y4Ll+XfDgFuoMjlH+xVcSarZIvmKmYuRxrryee3+o+NMW3Dg0RUQ8IXkvSpB4Th8eZleLTQiAPkQ1ntsKMDmfv8LRQ1JYebrdSBcJczKiZCoVWmqmHg3lor30mhJwp1pWI8Lgzep8O1Dv9cultVsiROdQYvLQe+2UFcy59chZHvZelrRSanJp1KL2BSMPWXjwi+vlmyETGbXqRmtZsVqEAX7ZmAy6moAA9nMLcIuXKMaLlzG6R+WEApxrz3BAvQGX7wJKGLaM3xUKXJllwP4N6ZMFXfDvX7iAuIGu238x5SJ9IktRk39hSk8O7+P9w5Pji/n9+ORKTz2I+XVZ8xvYqV/tycpmcfqN5FBjorFL0T5rnQPsj98ak5pbBPuzgxX5mCV91DqGG9foeY4aaULSDv08RCf0fMZfk3xmpLCx6Or1kGYsVVtHg2FTs0OLNI3zwx1z/sntzH1maYADh2KSIbeGSoa+wilFMk5mbSoe0KIeKcICnN/8DEpK8/keNwQdBr6FsC4kAI0XAmHxBALgTVfSvuf7MlM5s/0BVAslGD3ohu0BLVYsu7adug2e2DzxqKR/pCnLBccxytyOZX5PaCUgwpFNMwNAqqPEIcIhARiHKkkbP72+Qt6hYWEInPJh+AX01vK/WSI3q/kCFOD/4RMpWjD2ZsZu5JcNpw9IczVfou7M/Tq9IIG5g01rxRaK2x+9HLDtINMzyXbB/xM7zIn+CvL3ul+ryG6uWmtNIvoDRFM6U6sy+34AAAAASUVORK5CYII=;" vertex="1" parent="1">
          <mxGeometry x="70" y="732" width="49" height="54" as="geometry" />
        </mxCell>
        <mxCell id="zEZLAtN-QNjEZFmNs1Eo-41" value="DDoS" style="text;html=1;align=center;verticalAlign=middle;resizable=0;points=[];autosize=1;strokeColor=none;fillColor=none;" vertex="1" parent="1">
          <mxGeometry x="65" y="786" width="60" height="30" as="geometry" />
        </mxCell>
        <mxCell id="zEZLAtN-QNjEZFmNs1Eo-42" value="" style="shape=image;verticalLabelPosition=bottom;labelBackgroundColor=default;verticalAlign=top;aspect=fixed;imageAspect=0;image=data:image/png,iVBORw0KGgoAAAANSUhEUgAAADYAAAAmCAMAAAHPSqjiAAAAAXNSR0IArs4c6QAAAARnQU1BAACxjwv8YQUAAABjUExURQAAAJ+/YJ+/YJ+/VZe3WJm5WZq6Wpu7V5u7WJy8WZm5WZq5Wpq6WJq6WJu7WZu7WZu7Wpu7WZu7WZu7Wpy8Wpy8WZy8WZu7WZu7WZu7Wpu7WZu7WZy8WZu7WZu7WZu7WZu7WYJo1K8AAAAgdFJOUwAIEBggKDA4QEhQWGBocHiAh4+Xn6evt7/Hz9ff5+/3v+H4wgAAAAlwSFlzAAAXEQAAFxEByibzPwAAAl9JREFUOE+FlY2WqjAMhAMioqDCXgTEQuf9n/JO/4Qi7n7nWNuGlDSdFCEP04jUIhfzn6ciZ1HysrMObZrBdj2wbWJbM3JjR3VjEyaQi7r9M52TfYfoxSnzPYtxGBFwcyLH4ep7xMzOrusGoX2NurKGmmMGzlf01uADcwNOt2ydi2HpiZSSNr5LFH8+EqBwc5YcUD8DECXDkuPoezKvF5bDC7j7PmmAsCWAgZqciLRg2n2vZAuXm04k9cE7pklGThrqJLIQyMMETtKz+19gSNg+74E59yPmEMGbCn65wHUYHu9dRnRMScONrnPl0bM78QpGFxHL+jl1ElGucthF+bzzCKilADCGwAvglhyyFt2xcmEWCk7HJYwGzfFLBitnkjqd2YQ7jasgTmI8R/eoOaNxZaJnEo4oOUm/NnGl9q2sYWOSZn7b4AvvzW0po5XoHf1T8OP7W1hZRZShBVMPonaNFxe/ghPgikSFw2BCt4zOskNODQSGHR3scdbAdAs5qhRdKz/4zhWYN2rJZ3zuI+YJvSPdE75VhSEtJqwlsXDQGIsdS8LyNuhWQXe3TZi0P7hjmpu1b8m5p5X04HafVXTnlqb4DWcWmLZiJUcNHXJVLHWaqVdv7/GIig/b3V+i/Q6+ItNxq9NAy5Kyt97qBpPC3rXJVydSgrdKv1HLs5ak/8WJdKy6ydbqQo35dycrCRk2lzLl+HHhbGh4AdH145R+J9Hgp4J6ir5ff8GqstlgWKsPzV/wvPyuMurh8XFF71JHBZL2RnHP+lp8paw7I8t+u3x+7yfj/I15uIf3iPwHTC8yKFSGluMAAAAASUVORK5CYII=;" vertex="1" parent="1">
          <mxGeometry x="-80" y="130" width="54" height="38" as="geometry" />
        </mxCell>
        <mxCell id="zEZLAtN-QNjEZFmNs1Eo-43" value="" style="shape=image;verticalLabelPosition=bottom;labelBackgroundColor=default;verticalAlign=top;aspect=fixed;imageAspect=0;image=data:image/png,iVBORw0KGgoAAAANSUhEUgAAACQAAAArCAMAAAFQj+rpAAAAAXNSR0IArs4c6QAAAARnQU1BAACxjwv8YQUAAABgUExURQAAAJ+/YJ+/YJ+/VZe3WJm5WZq6Wpu7V5u7WJy8WZm5WZq5Wpq6WJq6WJu7WZu7Wpu7WZu7WZu7Wpy8Wpy8WZy8WZu7WZu7WZu7Wpu7WZu7WZy8WZu7WZu7WZu7WZu7WdR873EAAAAfdFJOUwAIEBggKDA4QEhQWGBocICHj5efp6+3v8fP19/n7/eclSivAAAACXBIWXMAABcRAAAXEQHKJvM/AAABeUlEQVQ4T4WUiZaDIAxF4zLWGbWbVlstvv//ywkQKGBb7zmagOGBSZSIDnwRQd8uxmVWsUStuR/1jSczM7IovswqphdLD2vK6WSxQ2oaYzAYo5nEsowTWSHybiJwRM7pvQ7oQ9zM4Gca72lqTBjFF86gPoohLOI40iU5OvEc9RSDWJFX+Fe1jMjF0xRqSQIqFkApA6FQqhD3RT+G5dAAz2R3nZ+nTb4HdYZYrQHgU2vo8COe4xQdW9O7ennGdHd6bGYWX0vhQKOkTphxlVhHhz/xHNPmNOurZy2bxHMLxJkYcE9kbjjC97KFI8rkJSZVqJv4jiHo7ZSO0wvMSU1jRqz8nCPTvIc8zCtlapOOEL3bXQFnGb+hBVRVtnWaw4DT3oF1/XH/osBkN6BPmyQmH9PW21DOWO1v6DO80R6zhH7i8Nw7SXYFlkoG76kWwP9F33PZFfmZd0WOX0UKLr8m/Y5CckAnlbvlSw056JdNi/TjiijtdirpF6J/9DsgEXcbw4YAAAAASUVORK5CYII=;" vertex="1" parent="1">
          <mxGeometry x="-6" y="400" width="36" height="43" as="geometry" />
        </mxCell>
        <mxCell id="zEZLAtN-QNjEZFmNs1Eo-44" value="" style="shape=image;verticalLabelPosition=bottom;labelBackgroundColor=default;verticalAlign=top;aspect=fixed;imageAspect=0;image=data:image/png,iVBORw0KGgoAAAANSUhEUgAAADAAAAAvCAMAAAHlW4ltAAAAAXNSR0IArs4c6QAAAARnQU1BAACxjwv8YQUAAABjUExURQAAAJ+/YJ+/YJ+/VZe3WJm5WZq6Wpu7V5u7WJy8WZm5WZq5Wpq6WJq6WJu7WZu7WZu7Wpu7WZu7WZu7Wpy8Wpy8WZy8WZu7WZu7WZu7Wpu7WZu7WZy8WZu7WZu7WZu7WZu7WYJo1K8AAAAgdFJOUwAIEBggKDA4QEhQWGBocHiAh4+Xn6evt7/Hz9ff5+/3v+H4wgAAAAlwSFlzAAAXEQAAFxEByibzPwAAAwlJREFUOE+NlIua4iAMhdPr1NoqVqu9N+//lHsSoJXq7O7/zSAFEkI4gUAnzRP/LB1hlGb70p7Mm6t+EjXut9a21D9dlhClOqbGsbabn2ilh+vqaE0X66iSJWumfSxTDymXZDbTrNssn3dpl1jaVRrZ/Qdmto+v89ueRD09VuoxwDgV07mgi3xgOdOEf/mgzHY8JyTFhyPDUb/35WfIi1US4pmY7+ZsemabEcviwlPynBGX0L8Pg9hEEg2t2PUDzug0kUGvJC6KYiBuNXT8DZXeCg5hjJGjtG7icUNOJSc2XrSrnXADBy4zwmMa4T7g6szNudKOh+HesnDhekQvXFhA3TFPL5/GN673rjO5+9iomHtTmBczwtmJeRMG9KBSVUqfTsvkk5qzKsOzyO0ryGTARIPKfN416UAqoWMr3gMnDLYqwCOaXNXEAI0V5ZMqdU9djYlcLrjU2mBKrUiqTowuRMhhgxtsMa2u80UmJq05W00paU5yvUbkYNkncoRKF3VlBecn1ORpqN9u6x0sz8TkSCGD68U4Ceww5EQJR9g6oLPphVaCa7M1LbScvBdFr1pXCh5cT64zcPxkviEtJ6jhKJT0NTJ3SNsvFA2qcWe6fysrz2nAkv5dSUnVrszjQcuWDDvfA3l54mbl6RhpCT9f5C/ka0Ux6iPYeeJxy80n2fCKkJfF3i+omcO6/CBbfyiZ2eXqYhPyD6CWgfVZrnj+SzgBHeOFilZopBWZCPELIrNMLTTK40OUCkQYCXOKcsYaSNfSYFMMKhA6+tFgI1clGX7giZGHcLF5jlbxGhhQjAMDNTjhvZ/1fTK2wo1UJ0ulgVoeURiXekY1SJlxENkyWtWtbuR3ELTfqBv5LHmiG8IC5zmlZNRK+zCgET7VoOFWTu5T5Pg0oNuMWJAlyShKC0/B/zGyPiBPHqKk+w8mX4ENz3HU/15UFmhJXzgB4m6pHt2dfqcJBX5H9UQ/n++tI8Lyzb0Dmp2Dd36nXFjlcCTBNtzVQWDxVd4EL8Av5A1K+52pCW6J6A86mz/DKqDx9gAAAABJRU5ErkJggg==;" vertex="1" parent="1">
          <mxGeometry x="-9" y="583.5" width="48" height="47" as="geometry" />
        </mxCell>
        <mxCell id="zEZLAtN-QNjEZFmNs1Eo-45" value="Direct Connect" style="text;html=1;align=center;verticalAlign=middle;resizable=0;points=[];autosize=1;strokeColor=none;fillColor=none;" vertex="1" parent="1">
          <mxGeometry x="-38" y="443" width="100" height="30" as="geometry" />
        </mxCell>
        <mxCell id="zEZLAtN-QNjEZFmNs1Eo-46" value="VPN" style="text;html=1;align=center;verticalAlign=middle;resizable=0;points=[];autosize=1;strokeColor=none;fillColor=none;" vertex="1" parent="1">
          <mxGeometry x="-10" y="630.5" width="50" height="30" as="geometry" />
        </mxCell>
        <mxCell id="zEZLAtN-QNjEZFmNs1Eo-47" value="VPC" style="text;html=1;align=center;verticalAlign=middle;resizable=0;points=[];autosize=1;strokeColor=none;fillColor=none;" vertex="1" parent="1">
          <mxGeometry x="-78" y="168" width="50" height="30" as="geometry" />
        </mxCell>
        <mxCell id="zEZLAtN-QNjEZFmNs1Eo-51" style="edgeStyle=orthogonalEdgeStyle;rounded=0;orthogonalLoop=1;jettySize=auto;html=1;exitX=0.87;exitY=0.65;exitDx=0;exitDy=0;exitPerimeter=0;startArrow=none;startFill=0;endArrow=classic;endFill=1;entryX=0;entryY=0.5;entryDx=0;entryDy=0;" edge="1" parent="1" source="zEZLAtN-QNjEZFmNs1Eo-49" target="zEZLAtN-QNjEZFmNs1Eo-36">
          <mxGeometry relative="1" as="geometry">
            <mxPoint x="-240" y="250.00000000000023" as="targetPoint" />
          </mxGeometry>
        </mxCell>
        <mxCell id="zEZLAtN-QNjEZFmNs1Eo-49" value="" style="verticalLabelPosition=bottom;html=1;verticalAlign=top;align=center;strokeColor=none;fillColor=#00BEF2;shape=mxgraph.azure.user;" vertex="1" parent="1">
          <mxGeometry x="-274.75" y="218" width="47.5" height="50" as="geometry" />
        </mxCell>
        <mxCell id="zEZLAtN-QNjEZFmNs1Eo-54" value="" style="shape=image;verticalLabelPosition=bottom;labelBackgroundColor=default;verticalAlign=top;aspect=fixed;imageAspect=0;image=https://ehs.oregonstate.edu/sites/ehs.oregonstate.edu/files/aed-icon-web.png;" vertex="1" parent="1">
          <mxGeometry x="-289.6" y="359.00000000000006" width="80" height="106.29" as="geometry" />
        </mxCell>
        <mxCell id="zEZLAtN-QNjEZFmNs1Eo-57" value="RabbitMQ" style="text;html=1;align=center;verticalAlign=middle;resizable=0;points=[];autosize=1;strokeColor=none;fillColor=none;" vertex="1" parent="1">
          <mxGeometry x="817" y="359.5" width="80" height="30" as="geometry" />
        </mxCell>
        <mxCell id="zEZLAtN-QNjEZFmNs1Eo-59" value="subscription&amp;nbsp;" style="text;html=1;align=center;verticalAlign=middle;resizable=0;points=[];autosize=1;strokeColor=none;fillColor=none;" vertex="1" parent="1">
          <mxGeometry x="607" y="618" width="90" height="30" as="geometry" />
        </mxCell>
        <mxCell id="zEZLAtN-QNjEZFmNs1Eo-60" value="" style="shape=image;verticalLabelPosition=bottom;labelBackgroundColor=default;verticalAlign=top;aspect=fixed;imageAspect=0;image=data:image/png,iVBORw0KGgoAAAANSUhEUgAAADUAAAAnCAMAAAHvIcBEAAAAAXNSR0IArs4c6QAAAARnQU1BAACxjwv8YQUAAABjUExURQAAACBAgCBQgCBKgCBIgCBGgCBKeiBJeyBIfCBKfCBJfCBIfSBIfSBKfSBJfSBIfSBKfh5KfR5JfR5JfR5KfR9JfR9JfR9IfR9JfR9Jfh9Jfh9KfR9JfR9JfR9JfR9JfR9JfWp5Ms8AAAAgdFJOUwAIEBggKDA4QEhQWGBocHiAh4+Xn6evt7/Hz9ff5+/3v+H4wgAAAAlwSFlzAAAXEQAAFxEByibzPwAAAldJREFUOE+FlYmWgjAMRVMRRWUY3KAiS/7/K+c1KbRF5njPgW50yUtSCFj3IrpoITD1rnhKA7B7+e+IDnikx3F1Lw5tUFZE54dvcK3lj/viTIQxcLi5GpqBXzxcF0K9LFfYk68B17uMaEXf17l3xLZ+Q+HhPjBaI5qSsTKsBSbCkRZeMJ71LMXU+U5HwTzeB+bStwMHznzNcGIY3TjZiGdpqOPc1wI7Hl3B4o7XzZ8BkgyuI8dKVtwiTYUHtaTuybbSMxZSOIpJCowR76W6xsjknnfSijGsk0E1ckIsllJbexWl17yYrWWWiErhQSe8Y30EXjRvV2OHqM0aTEr+imXPuDv6qsH+c13In6zG7vgtHQkNS3wvsR/jgvgmB9gPpXdMcXmL2lNDLNsEQ7MniT92c36EHOuY1Pfz0JJdDlV3Hjo9gq61moyhxKQA9rotXksZIOqG48DFbZSFwAzULMY5DX1uKlXDSzjlrQ8KT6p2wrnz3zAPP77vCyW+7UsNTnNx8zeOuQJz+jTYDc74ZV7Dw0YKWO43o9rThkhNwGKb046qlabpJ1cZ7aI7Dx6FzeN1O3cDpuxjo5Fw9tOaTXA9qYnZFB3aVA0WXDG0v2FRWIJM2U3BGNNFkZpQB2lhYk4P3FkzjfxCViC8IOw5iGvZ4o66+xba7n+xpuhHRNUpZGCJG+wdOT4bPi9u5TiGu/gHs+7RCZHuzer+E6Y2jnQLIcy0nWD/Ujk1nPJL/sNz2wSrIKFcdQZX65YMW1zg3Dk69i6iqm/hIREV/UnA8d/DRfR6yxH9AQb6OA4CAa15AAAAAElFTkSuQmCC;" vertex="1" parent="1">
          <mxGeometry x="625.5" y="579" width="53" height="39" as="geometry" />
        </mxCell>
        <mxCell id="zEZLAtN-QNjEZFmNs1Eo-61" value="" style="edgeStyle=orthogonalEdgeStyle;rounded=0;orthogonalLoop=1;jettySize=auto;html=1;endArrow=open;endFill=0;strokeWidth=2;" edge="1" parent="1" source="zEZLAtN-QNjEZFmNs1Eo-54">
          <mxGeometry relative="1" as="geometry">
            <Array as="points">
              <mxPoint x="-3" y="423" />
            </Array>
            <mxPoint x="-190" y="422" as="sourcePoint" />
            <mxPoint x="-3" y="422" as="targetPoint" />
          </mxGeometry>
        </mxCell>
        <mxCell id="zEZLAtN-QNjEZFmNs1Eo-62" value="" style="edgeStyle=orthogonalEdgeStyle;rounded=0;orthogonalLoop=1;jettySize=auto;html=1;endArrow=open;endFill=0;strokeWidth=2;" edge="1" parent="1">
          <mxGeometry relative="1" as="geometry">
            <Array as="points">
              <mxPoint x="-90" y="614" />
              <mxPoint x="-90" y="614" />
            </Array>
            <mxPoint x="-215.5999999999999" y="613.125" as="sourcePoint" />
            <mxPoint x="-9" y="613.125" as="targetPoint" />
          </mxGeometry>
        </mxCell>
        <mxCell id="zEZLAtN-QNjEZFmNs1Eo-63" value="" style="shadow=0;dashed=0;html=1;strokeColor=none;fillColor=#4495D1;labelPosition=center;verticalLabelPosition=bottom;verticalAlign=top;align=center;outlineConnect=0;shape=mxgraph.veeam.portal_admin;" vertex="1" parent="1">
          <mxGeometry x="-260" y="588.7" width="44.4" height="48.8" as="geometry" />
        </mxCell>
        <mxCell id="zEZLAtN-QNjEZFmNs1Eo-64" value="Admin" style="text;html=1;align=center;verticalAlign=middle;resizable=0;points=[];autosize=1;strokeColor=none;fillColor=none;" vertex="1" parent="1">
          <mxGeometry x="-270.6" y="637.5" width="60" height="30" as="geometry" />
        </mxCell>
        <mxCell id="zEZLAtN-QNjEZFmNs1Eo-65" value="User" style="text;html=1;align=center;verticalAlign=middle;resizable=0;points=[];autosize=1;strokeColor=none;fillColor=none;" vertex="1" parent="1">
          <mxGeometry x="-274.6" y="268" width="50" height="30" as="geometry" />
        </mxCell>
        <mxCell id="Q20QcfE35P7WGtKTIKab-1" value="" style="shape=image;verticalLabelPosition=bottom;labelBackgroundColor=default;verticalAlign=top;aspect=fixed;imageAspect=0;image=data:image/png,iVBORw0KGgoAAAANSUhEUgAAADYAAAAvCAMAAAHoRfkqAAAAAXNSR0IArs4c6QAAAARnQU1BAACxjwv8YQUAAABjUExURQAAAJ+AYI+PUJWKVZeHWJOMU5WKVZKJUpOLVJWKVZOJU5SIVJWKVZOJU5SJVJOKU5OJVJWKVZSLVJWKVJWKVZSLVJWKVZSKVJSLVJWKVZSKVJSKVJWKVZSKVJSKVJSKVJSKVABvIiUAAAAgdFJOUwAIEBggKDA4QEhQWGBocHiAh4+Xn6evt7/Hz9ff5+/3v+H4wgAAAAlwSFlzAAAXEQAAFxEByibzPwAAAeJJREFUOE/NlQtzwiAMx9NZtXZM2cNJH0K+/6dcCEFpKafucbffXQvJn7SEBgqADCCswUO9F2nFFvwYukwYTqxVUM+nOKq+jEYYeDxALx4mPBRHZVLTd+slcxYbcLGz5pkEPuBTvAHNl797YhsoWP6V0TIqtaaacJQ2sOVZgPb3OJNPWh/PGge9iKWEpw9NuGoIIygIKxa4V2uxg4onFj1XjbFmV3NuC9peV7l2NpHuKXiuWg7CBlUjsEdJ6rRQbAvGQo0rMTLcq3SEN59STrf1xSHPn3HCJuaVo21ZU5SfdDXl+awlbU+i+fTGtEJ+TUtyTzXKdAUnynoMjokWEU+mtbTeJU1TNZW0Su+LmifXeqkWY1xwJFrGd7WDBTdIlTWhiuSz6yO2tFVDfRAHkqRLK7fjoUKFNZxlMTO2+Fp8O+znknLyhvuhCvhAN5nQbTYW6VuVt18JxUfzr4T1vek7ahtnjOX/RsZSGO3Gxq+1optZnsi/CHtyumkGOuoP55ari46YlEJYRk3FlXAzrGq1psJ9NEzTj8Coh8NeLH2854fDhL8L28gmnjDdI0thd/CDsCPa4o9qmdVI25ROiQUuh7s/yTPeRJzzjsir0CCaij33QRMZKujQzar4JpR3cTYAXyNZR59Jj0DRAAAAAElFTkSuQmCC;" vertex="1" parent="1">
          <mxGeometry x="830" y="320" width="54" height="47" as="geometry" />
        </mxCell>
      </root>
    </mxGraphModel>
  </diagram>
  <diagram name="CCE" id="qHCSukQb9uelF4kFLv7l">
    <mxGraphModel dx="2907" dy="1040" grid="1" gridSize="10" guides="1" tooltips="1" connect="1" arrows="1" fold="1" page="1" pageScale="1" pageWidth="1169" pageHeight="827" math="0" shadow="0">
      <root>
        <mxCell id="qDLfqHvrbTzxQEXoshhX-0" />
        <mxCell id="qDLfqHvrbTzxQEXoshhX-1" parent="qDLfqHvrbTzxQEXoshhX-0" />
        <mxCell id="qDLfqHvrbTzxQEXoshhX-2" value="" style="rounded=0;whiteSpace=wrap;html=1;labelBackgroundColor=none;fillColor=none;dashed=1;container=1;pointerEvents=0;collapsible=0;recursiveResize=0;" vertex="1" parent="qDLfqHvrbTzxQEXoshhX-1">
          <mxGeometry x="730" y="465" width="410" height="133" as="geometry" />
        </mxCell>
        <mxCell id="qDLfqHvrbTzxQEXoshhX-4" value="DB - Master&lt;br&gt;(RDS)" style="text;html=1;align=center;verticalAlign=middle;resizable=0;points=[];autosize=1;strokeColor=none;fillColor=none;" vertex="1" parent="qDLfqHvrbTzxQEXoshhX-2">
          <mxGeometry x="45" y="93" width="90" height="40" as="geometry" />
        </mxCell>
        <mxCell id="qDLfqHvrbTzxQEXoshhX-5" value="DB - Slave&lt;br&gt;(RDS)" style="text;html=1;align=center;verticalAlign=middle;resizable=0;points=[];autosize=1;strokeColor=none;fillColor=none;" vertex="1" parent="qDLfqHvrbTzxQEXoshhX-2">
          <mxGeometry x="272" y="93" width="80" height="40" as="geometry" />
        </mxCell>
        <mxCell id="qDLfqHvrbTzxQEXoshhX-11" style="edgeStyle=orthogonalEdgeStyle;rounded=0;orthogonalLoop=1;jettySize=auto;html=1;endArrow=open;endFill=0;strokeWidth=2;startArrow=none;startFill=0;" edge="1" parent="qDLfqHvrbTzxQEXoshhX-2">
          <mxGeometry relative="1" as="geometry">
            <Array as="points">
              <mxPoint x="199.90999999999985" y="8" />
              <mxPoint x="89.90999999999985" y="8" />
            </Array>
            <mxPoint x="200.00090909090886" y="-24" as="sourcePoint" />
            <mxPoint x="90.00090909090886" y="38" as="targetPoint" />
          </mxGeometry>
        </mxCell>
        <mxCell id="qDLfqHvrbTzxQEXoshhX-12" style="edgeStyle=orthogonalEdgeStyle;rounded=0;orthogonalLoop=1;jettySize=auto;html=1;endArrow=classic;endFill=1;strokeWidth=2;startArrow=none;startFill=0;" edge="1" parent="qDLfqHvrbTzxQEXoshhX-2">
          <mxGeometry relative="1" as="geometry">
            <Array as="points">
              <mxPoint x="200" y="8" />
              <mxPoint x="311" y="8" />
            </Array>
            <mxPoint x="200" y="-20" as="sourcePoint" />
            <mxPoint x="310.9099999999994" y="38" as="targetPoint" />
          </mxGeometry>
        </mxCell>
        <mxCell id="xC0fP6OKoAy3Hj09utEd-24" value="" style="shape=image;verticalLabelPosition=bottom;labelBackgroundColor=default;verticalAlign=top;aspect=fixed;imageAspect=0;image=data:image/png,iVBORw0KGgoAAAANSUhEUgAAADEAAAA2CAMAAAEuQLEAAAAAAXNSR0IArs4c6QAAAARnQU1BAACxjwv8YQUAAABjUExURQAAAACAvwBwvwB1vwBwvwBzvwBwvwByvwBwvwBxvwBwvwBxvwBwvwBxvwBwvwBxvwBwvwBxwQBwwQBxwQBwwABxwABwwABxwABwwABxwABwwABxwABwwABxwABwwABxwABwwKoVyPYAAAAgdFJOUwAIEBggKDA4QEhQWGBocHiAh4+Xn6evt7/Hz9ff5+/3v+H4wgAAAAlwSFlzAAAXEQAAFxEByibzPwAAAxtJREFUOE+NVYmWqjAMrSCLCwICIyLQ/P9Xzk260ArvvLkzQtvsaRIUMPJDLfhppd52Q3g2ePI7kSfjhN+qZrMRdMzGYFIASOT8ToTlR84UJepkVTmNssL/DfKD2eJvOg/qZXbwSTAvM/MlTpDObkGbLqV6USJ44Fy3Zm1ZCFbm1KyhSxsj+sHPlgP5YHGXX+OcNhtVjyeVXu1GkBbYWP0qJWwCR7AkUYvQzLE8PUdKlNmlxYv0uNBkdw5nIhgVFESlXaofCi+B8Sa+ujxwYSEfKXSQdbun2mZacEe2mdJczB4n1p6jqDNHtrZsm4vEU2rvjcpu4AG8zIb8qtJVKIOR9pikQNQbfl/JFGEIcZRxCVOFvFV2aTAT3+GTYGOHchxvdhkiIxrHIJkOKz351ZBG1W4Icv0O7qeiLb8of02mFOCguzAL3BsiTWhLukeLyKi3G06Dq3Yu3u0qrz26zsETcj3CAXFZ4AirXIVKvIgleN1OgSVID1jY8AwBAjnKcnyga+6mv4Vwvl2WdK6wynFt5uZ2qj4RIcTn7hs9Buz1yNSOUCVPmuEZCPGUqW2IpKYtuAAzKk5z8mPgivi1q5mZXMt/pKgsOgoKF7K2ra/kR5ABDlCniWcI0GFIhSoPcPkwD7DG9X0MZIQ5JR23Geuf2JcvlKx8DBORDjhZjk0lrYbyOs614LYcmCqnb+UxjCnfiDncPVQeo4KpVYYSxPcZBcpr0H8GF81TsCW9o/AEemVq3TU9xuTgOn9DUvWzzKTpa5wx0Pn46gSEtMd8dFk5f1476/dYorGzYsPjO8RIIifT0jHuOsp5JKELNR1UxGkJzYQSD+788kVgKPSA3D7n1Tg5BbYDiWxtXoaUNNPkvh7VXPAs3ObnV+RHOE831W5D8A8ScLdLH53uTaL/IjHxzMkL1Usvs8Tku/0QfVOtHYJJSinVGsMCDX5YiIcohTnTZMfx/1CgLUxxXlb0Sxd9gnY41WDSgebsBaGP/4h/oXiDOu1qX7TQ89uUUd7+y4Mc387QlOz3ymMYU0NT1v2hzWNkHTPr/kC5Ur8biT949U1IBAAAAABJRU5ErkJggg==;" vertex="1" parent="qDLfqHvrbTzxQEXoshhX-2">
          <mxGeometry x="65.5" y="38" width="49" height="54" as="geometry" />
        </mxCell>
        <mxCell id="xC0fP6OKoAy3Hj09utEd-25" value="" style="shape=image;verticalLabelPosition=bottom;labelBackgroundColor=default;verticalAlign=top;aspect=fixed;imageAspect=0;image=data:image/png,iVBORw0KGgoAAAANSUhEUgAAADEAAAA2CAMAAAEuQLEAAAAAAXNSR0IArs4c6QAAAARnQU1BAACxjwv8YQUAAABjUExURQAAAACAvwBwvwB1vwBwvwBzvwBwvwByvwBwvwBxvwBwvwBxvwBwvwBxvwBwvwBxvwBwvwBxwQBwwQBxwQBwwABxwABwwABxwABwwABxwABwwABxwABwwABxwABwwABxwABwwKoVyPYAAAAgdFJOUwAIEBggKDA4QEhQWGBocHiAh4+Xn6evt7/Hz9ff5+/3v+H4wgAAAAlwSFlzAAAXEQAAFxEByibzPwAAAxtJREFUOE+NVYmWqjAMrSCLCwICIyLQ/P9Xzk260ArvvLkzQtvsaRIUMPJDLfhppd52Q3g2ePI7kSfjhN+qZrMRdMzGYFIASOT8ToTlR84UJepkVTmNssL/DfKD2eJvOg/qZXbwSTAvM/MlTpDObkGbLqV6USJ44Fy3Zm1ZCFbm1KyhSxsj+sHPlgP5YHGXX+OcNhtVjyeVXu1GkBbYWP0qJWwCR7AkUYvQzLE8PUdKlNmlxYv0uNBkdw5nIhgVFESlXaofCi+B8Sa+ujxwYSEfKXSQdbun2mZacEe2mdJczB4n1p6jqDNHtrZsm4vEU2rvjcpu4AG8zIb8qtJVKIOR9pikQNQbfl/JFGEIcZRxCVOFvFV2aTAT3+GTYGOHchxvdhkiIxrHIJkOKz351ZBG1W4Icv0O7qeiLb8of02mFOCguzAL3BsiTWhLukeLyKi3G06Dq3Yu3u0qrz26zsETcj3CAXFZ4AirXIVKvIgleN1OgSVID1jY8AwBAjnKcnyga+6mv4Vwvl2WdK6wynFt5uZ2qj4RIcTn7hs9Buz1yNSOUCVPmuEZCPGUqW2IpKYtuAAzKk5z8mPgivi1q5mZXMt/pKgsOgoKF7K2ra/kR5ABDlCniWcI0GFIhSoPcPkwD7DG9X0MZIQ5JR23Geuf2JcvlKx8DBORDjhZjk0lrYbyOs614LYcmCqnb+UxjCnfiDncPVQeo4KpVYYSxPcZBcpr0H8GF81TsCW9o/AEemVq3TU9xuTgOn9DUvWzzKTpa5wx0Pn46gSEtMd8dFk5f1476/dYorGzYsPjO8RIIifT0jHuOsp5JKELNR1UxGkJzYQSD+788kVgKPSA3D7n1Tg5BbYDiWxtXoaUNNPkvh7VXPAs3ObnV+RHOE831W5D8A8ScLdLH53uTaL/IjHxzMkL1Usvs8Tku/0QfVOtHYJJSinVGsMCDX5YiIcohTnTZMfx/1CgLUxxXlb0Sxd9gnY41WDSgebsBaGP/4h/oXiDOu1qX7TQ89uUUd7+y4Mc387QlOz3ymMYU0NT1v2hzWNkHTPr/kC5Ur8biT949U1IBAAAAABJRU5ErkJggg==;" vertex="1" parent="qDLfqHvrbTzxQEXoshhX-2">
          <mxGeometry x="287.5" y="38" width="49" height="54" as="geometry" />
        </mxCell>
        <mxCell id="qDLfqHvrbTzxQEXoshhX-14" value="" style="edgeStyle=orthogonalEdgeStyle;rounded=0;orthogonalLoop=1;jettySize=auto;html=1;endArrow=open;endFill=0;strokeWidth=2;entryX=0;entryY=0.5;entryDx=0;entryDy=0;" edge="1" parent="qDLfqHvrbTzxQEXoshhX-1" source="qDLfqHvrbTzxQEXoshhX-36" target="qDLfqHvrbTzxQEXoshhX-21">
          <mxGeometry relative="1" as="geometry">
            <Array as="points">
              <mxPoint x="104" y="612" />
            </Array>
            <mxPoint x="-215.54545454545405" y="612" as="sourcePoint" />
            <mxPoint x="710" y="204.090909090909" as="targetPoint" />
          </mxGeometry>
        </mxCell>
        <mxCell id="qDLfqHvrbTzxQEXoshhX-15" value="Monitor template" style="edgeStyle=orthogonalEdgeStyle;rounded=0;orthogonalLoop=1;jettySize=auto;html=1;endArrow=open;endFill=0;strokeWidth=2;" edge="1" parent="qDLfqHvrbTzxQEXoshhX-1">
          <mxGeometry x="0.1208" y="-10" relative="1" as="geometry">
            <Array as="points">
              <mxPoint x="919" y="270" />
              <mxPoint x="519" y="270" />
            </Array>
            <mxPoint as="offset" />
            <mxPoint x="518.9999999999995" y="310" as="targetPoint" />
          </mxGeometry>
        </mxCell>
        <mxCell id="qDLfqHvrbTzxQEXoshhX-18" value="Web" style="text;html=1;align=center;verticalAlign=middle;resizable=0;points=[];autosize=1;strokeColor=none;fillColor=none;" vertex="1" parent="qDLfqHvrbTzxQEXoshhX-1">
          <mxGeometry x="395" y="325" width="50" height="30" as="geometry" />
        </mxCell>
        <mxCell id="qDLfqHvrbTzxQEXoshhX-20" value="Jumphost" style="text;html=1;align=center;verticalAlign=middle;resizable=0;points=[];autosize=1;strokeColor=none;fillColor=none;" vertex="1" parent="qDLfqHvrbTzxQEXoshhX-1">
          <mxGeometry x="90" y="630.5" width="80" height="30" as="geometry" />
        </mxCell>
        <mxCell id="qDLfqHvrbTzxQEXoshhX-21" value="" style="shape=image;verticalLabelPosition=bottom;labelBackgroundColor=default;verticalAlign=top;aspect=fixed;imageAspect=0;image=data:image/png,iVBORw0KGgoAAAANSUhEUgAAADUAAAAnCAMAAAHvIcBEAAAAAXNSR0IArs4c6QAAAARnQU1BAACxjwv8YQUAAABjUExURQAAACBAgCBQgCBKgCBIgCBGgCBKeiBJeyBIfCBKfCBJfCBIfSBIfSBKfSBJfSBIfSBKfh5KfR5JfR5JfR5KfR9JfR9JfR9IfR9JfR9Jfh9Jfh9KfR9JfR9JfR9JfR9JfR9JfWp5Ms8AAAAgdFJOUwAIEBggKDA4QEhQWGBocHiAh4+Xn6evt7/Hz9ff5+/3v+H4wgAAAAlwSFlzAAAXEQAAFxEByibzPwAAAldJREFUOE+FlYmWgjAMRVMRRWUY3KAiS/7/K+c1KbRF5njPgW50yUtSCFj3IrpoITD1rnhKA7B7+e+IDnikx3F1Lw5tUFZE54dvcK3lj/viTIQxcLi5GpqBXzxcF0K9LFfYk68B17uMaEXf17l3xLZ+Q+HhPjBaI5qSsTKsBSbCkRZeMJ71LMXU+U5HwTzeB+bStwMHznzNcGIY3TjZiGdpqOPc1wI7Hl3B4o7XzZ8BkgyuI8dKVtwiTYUHtaTuybbSMxZSOIpJCowR76W6xsjknnfSijGsk0E1ckIsllJbexWl17yYrWWWiErhQSe8Y30EXjRvV2OHqM0aTEr+imXPuDv6qsH+c13In6zG7vgtHQkNS3wvsR/jgvgmB9gPpXdMcXmL2lNDLNsEQ7MniT92c36EHOuY1Pfz0JJdDlV3Hjo9gq61moyhxKQA9rotXksZIOqG48DFbZSFwAzULMY5DX1uKlXDSzjlrQ8KT6p2wrnz3zAPP77vCyW+7UsNTnNx8zeOuQJz+jTYDc74ZV7Dw0YKWO43o9rThkhNwGKb046qlabpJ1cZ7aI7Dx6FzeN1O3cDpuxjo5Fw9tOaTXA9qYnZFB3aVA0WXDG0v2FRWIJM2U3BGNNFkZpQB2lhYk4P3FkzjfxCViC8IOw5iGvZ4o66+xba7n+xpuhHRNUpZGCJG+wdOT4bPi9u5TiGu/gHs+7RCZHuzer+E6Y2jnQLIcy0nWD/Ujk1nPJL/sNz2wSrIKFcdQZX65YMW1zg3Dk69i6iqm/hIREV/UnA8d/DRfR6yxH9AQb6OA4CAa15AAAAAElFTkSuQmCC;" vertex="1" parent="qDLfqHvrbTzxQEXoshhX-1">
          <mxGeometry x="103.5" y="591.5" width="53" height="39" as="geometry" />
        </mxCell>
        <mxCell id="qDLfqHvrbTzxQEXoshhX-22" value="" style="rounded=0;whiteSpace=wrap;html=1;fillColor=none;" vertex="1" parent="qDLfqHvrbTzxQEXoshhX-1">
          <mxGeometry x="-80" y="130" width="1280" height="700" as="geometry" />
        </mxCell>
        <mxCell id="qDLfqHvrbTzxQEXoshhX-23" value="" style="edgeStyle=orthogonalEdgeStyle;rounded=0;orthogonalLoop=1;jettySize=auto;html=1;exitX=0.5;exitY=0;exitDx=0;exitDy=0;" edge="1" parent="qDLfqHvrbTzxQEXoshhX-1" source="rJICmP8DIEkyBmMFmKoL-0">
          <mxGeometry relative="1" as="geometry">
            <mxPoint x="880" y="411" as="sourcePoint" />
            <mxPoint x="720" y="261" as="targetPoint" />
            <Array as="points">
              <mxPoint x="857" y="261" />
            </Array>
          </mxGeometry>
        </mxCell>
        <mxCell id="qDLfqHvrbTzxQEXoshhX-24" style="edgeStyle=orthogonalEdgeStyle;rounded=0;orthogonalLoop=1;jettySize=auto;html=1;endArrow=open;endFill=0;strokeWidth=2;" edge="1" parent="qDLfqHvrbTzxQEXoshhX-1" source="qDLfqHvrbTzxQEXoshhX-28" target="xC0fP6OKoAy3Hj09utEd-13">
          <mxGeometry relative="1" as="geometry">
            <mxPoint x="430" y="559" as="sourcePoint" />
            <mxPoint x="650" y="579" as="targetPoint" />
            <Array as="points">
              <mxPoint x="290" y="260" />
              <mxPoint x="290" y="260" />
            </Array>
          </mxGeometry>
        </mxCell>
        <mxCell id="qDLfqHvrbTzxQEXoshhX-26" style="edgeStyle=orthogonalEdgeStyle;rounded=0;orthogonalLoop=1;jettySize=auto;html=1;endArrow=open;endFill=0;strokeWidth=2;entryX=1.01;entryY=0.637;entryDx=0;entryDy=0;entryPerimeter=0;" edge="1" parent="qDLfqHvrbTzxQEXoshhX-1">
          <mxGeometry relative="1" as="geometry">
            <mxPoint x="930" y="449" as="sourcePoint" />
            <mxPoint x="724.4200000000001" y="416.4525000000001" as="targetPoint" />
            <Array as="points">
              <mxPoint x="930" y="416" />
              <mxPoint x="760" y="416" />
            </Array>
          </mxGeometry>
        </mxCell>
        <mxCell id="qDLfqHvrbTzxQEXoshhX-27" style="edgeStyle=orthogonalEdgeStyle;rounded=0;orthogonalLoop=1;jettySize=auto;html=1;endArrow=open;endFill=0;strokeWidth=2;exitX=1;exitY=0.5;exitDx=0;exitDy=0;" edge="1" parent="qDLfqHvrbTzxQEXoshhX-1" source="qDLfqHvrbTzxQEXoshhX-35" target="xC0fP6OKoAy3Hj09utEd-13">
          <mxGeometry relative="1" as="geometry">
            <mxPoint x="260" y="559" as="sourcePoint" />
            <mxPoint x="430" y="579.5" as="targetPoint" />
            <Array as="points">
              <mxPoint x="130" y="423" />
            </Array>
          </mxGeometry>
        </mxCell>
        <mxCell id="qDLfqHvrbTzxQEXoshhX-28" value="" style="shape=image;verticalLabelPosition=bottom;labelBackgroundColor=default;verticalAlign=top;aspect=fixed;imageAspect=0;image=data:image/png,iVBORw0KGgoAAAANSUhEUgAAAC8AAAA0CAMAAAFa76FQAAAAAXNSR0IArs4c6QAAAARnQU1BAACxjwv8YQUAAABjUExURQAAAGCA31CPz1WK1ViP11OM0lWP1VeN1lSP01WO1VaM1lSO1FWN1VaO1VSN1FWO1VaN1VWO1VaP1lSO1VWP1VaO1lWP1VWO1VWP1lWO1VWO1VWO1VWO1VWO1VWO1VWO1VWO1aJ7xuEAAAAgdFJOUwAIEBggKDA4QEhQWGBocHiAh4+Xn6evt7/Hz9ff5+/3v+H4wgAAAAlwSFlzAAAXEQAAFxEByibzPwAAA1pJREFUOE+FVYmCqjAMLIeiK5eoHOXK/3/lmyRtAXX3za6FlLTNMUkN0PMwGpOcTWEGk7PosIg0qGBO7ikg+cfqq2lMxiqEP9mLMfFAogF0hSqbe8bji4eZh6We6rpOwm6CFr8bb2H9rE0wbAqy3oHMadG3hM78IBZFV8TkycLpqXMDjzixrhtjMlUzJpcNf/TkvJIHJCDVZfid2f0o4km3atWHSO4dUjTD9D0Smga6OiGgoVX2MiP58GKOOp30eGLGmAfioBhKs/os3MhkcvaM4Li4l7DX2LszytkJl9QblntxkSVGLnOXTdv2ihF8wNSFRxwEpJbPiMXYzhn0I19MREMlLyuMdZj0k8Du3oEHwUBEn4JbG0aS9H0iBc++oKc7CZEOOBHnY6BCRYdkJTUzI9LsMgqiQFqO94OfERHt68CY60IEmoJGDq0wmVEw8R2y1RQhCGG+ILANYes0d5hnZzIQxR2SiiKZmfV+wM5WOFrXPB+TaTgdScxKAOzlNBSzy1zJA4B5dtBiE5n3gel1KTGZmSDewJ6rXnUHqYBJk7/0bIbsrYY9U7VTUjNJhLTWFjna7qqi1McCTo5i7+Ss0MCaptNSUeoCEdXujZFSCGtK3i9+32UjDhVTHusKWRNLRjp0KsCCctdvzAIV3hL9gQoqRE8f/L+RgyYdVIv1/0sSsI1GiSMQ3VnaeHlExrr04uxtiCqcRjY/9Iw471h1ffqNj0ibmT+PtWwVD/xecHf9C9Gthd6coT6EMUeUa/taj6XGuCHe9Xtxnl80yWlpu96P3lQ0oaEIQQXVTGOTmnyrzvQx0RzY0tILVAg1Xjq9nT4jWqWHATOh3jri/sc4k5J9wzJisN5gMAP5K32bRnPzG3n0TJzK30UNd2ocF1jbKOE3iL51jIWi3BN3eK2I3w9g/cp7U7pIwmN/v9y0BgOgn60+lYu3o6LFe3AhtJWWL1yHjq8Owa6LDuKIILJjvMUz1cpnIE/B2GgOMUVUl9Xpx9YG/l9oV8vYleatNFK7cB9c2o3FqIRjHeBi3DeJc9vuCjxdKLjhkUy/lXWMG+bbl9iiYA+FxLgstH69dwBeMe8zEL1wef2mLbihXkdtcDGX++PjwHe4rsDV3783td/AXaH50nuM+Qc0LT8vwqsjAQAAAABJRU5ErkJggg==;" vertex="1" parent="qDLfqHvrbTzxQEXoshhX-1">
          <mxGeometry x="-10" y="223" width="47" height="52" as="geometry" />
        </mxCell>
        <mxCell id="qDLfqHvrbTzxQEXoshhX-29" value="" style="shape=image;verticalLabelPosition=bottom;labelBackgroundColor=default;verticalAlign=top;aspect=fixed;imageAspect=0;image=data:image/png,iVBORw0KGgoAAAANSUhEUgAAADQAAAA4CAMAAAHyYxs0AAAAAXNSR0IArs4c6QAAAARnQU1BAACxjwv8YQUAAABjUExURQAAAGCA31CPz1WK1ViP11OM0lWP1VeN1lSP01WO1VaM1lSO1FWN1VaO1VSN1FWO1VaN1VWO1VaP1lSO1VWP1VaO1lWP1VWO1VWP1lWO1VWO1VWO1VWO1VWO1VWO1VWO1VWO1aJ7xuEAAAAgdFJOUwAIEBggKDA4QEhQWGBocHiAh4+Xn6evt7/Hz9ff5+/3v+H4wgAAAAlwSFlzAAAXEQAAFxEByibzPwAAA3RJREFUOE+Vldm6qjAMhYOKIg7bWdwy5P2f8qyVtAUUt9/5L6BtmoE2CQLOfIgcRFSk8gkpCi6InERuJnPSYM4HZmHBNIsCLyx0wU7lwqijMvfhAq+sACK5Cp7wD6D1I1LbFrOIbXAPoWIGEejsmUyKrup7GJLg2HhcRC1KcDeFma7x1CMjNe9NQ3dJSWm32iOUfrayjQwE2+LOzJ6VrMw+Y2KE5YIzejrEnb/2DNGut/5uua82qwRHEDb0zFWfinN/5aJqTuShbfw2xKaqwbYz+1Vt4KB62nRb2ou4p0x5pmRwYD5cYf2D6IGz0n0/N3yoK5HS1IKVNHQ/yhPlHCZ4pSYKt6ObMM/sSDh0L6DtcGmJp2zTjQINyUAOtDLkqpYXuerM5mNusDa1DmaV5dwEd31Ma7mT+/uFLdSjkKXaCSQ2qp0nEcD1XcMwb1SrJCA7RMoarbXOObfMJZzIUTWP2dOfxm5pr7aKoou/iIehqTbeRXu7EXCxqgRlFC2l8UjftfAZHsAlhpi7iDXPpDJRwkQnLk+LrIWo5a2JLKFchChQWJbZFHWzEw+GopnZKuxJEbKIZii6uhuzSJEuTjRJUfjaG3eYr8IuAKKjK2ELvtpEDkQp3XL0lKdlp5GJNkGCbmahJjSaI1vdhREYZjJYq/cN5k0bRhGUg13cA1f4xgOK67DhFbQUS6QvbJCBqu2onfzNtkWzQWNdh/dXFuhi2iUPP/R3+FCNhilo03cxYwd/2p0mPrY4U6TtlAw3dukorc+pA8/Mvj4P3ls/kh/8pisEi6ivg9s9m+CFwXEX6DgnadQaXeAWq37EgzkZqaGA4MKMVBPXjtWBEprOCenFlhyh0rUagd/pUAkNqWRu+V/W+O4JH41SuadsBVSqw+cHsDJUaq0loq31p/fVU6lWLVk3SPqvSr+hxaJHpuT6plTEPo2jONoAJKU1aiNleK9UpSK1duxEJb/kJvxTkhLOO9V/o01o+VGpssypQ/5EpXk3SB+Us/9a+vBYiKlwg1LWGyd5p40VxV8HscSmgQ6MIO3Z7w7NRJUuOtYlyiGE04Nb63Ba2Sb8RgaUsI8U7QY5mtjjK6bWQYnK/dSZ1pBdR2GTWeVBfGSJbG1HnWUHQ/WocU/Bw+68WjJc+4uNj2Q/bD7nKzX+o8fiB3hXvcXkGiPyDwMqS9JxE6bQAAAAAElFTkSuQmCC;" vertex="1" parent="qDLfqHvrbTzxQEXoshhX-1">
          <mxGeometry x="-14" y="730" width="52" height="56" as="geometry" />
        </mxCell>
        <mxCell id="qDLfqHvrbTzxQEXoshhX-30" value="WAF" style="text;html=1;align=center;verticalAlign=middle;resizable=0;points=[];autosize=1;strokeColor=none;fillColor=none;" vertex="1" parent="qDLfqHvrbTzxQEXoshhX-1">
          <mxGeometry x="-10" y="275" width="50" height="30" as="geometry" />
        </mxCell>
        <mxCell id="qDLfqHvrbTzxQEXoshhX-31" value="HSS" style="text;html=1;align=center;verticalAlign=middle;resizable=0;points=[];autosize=1;strokeColor=none;fillColor=none;" vertex="1" parent="qDLfqHvrbTzxQEXoshhX-1">
          <mxGeometry x="-13" y="786" width="50" height="30" as="geometry" />
        </mxCell>
        <mxCell id="qDLfqHvrbTzxQEXoshhX-32" value="" style="shape=image;verticalLabelPosition=bottom;labelBackgroundColor=default;verticalAlign=top;aspect=fixed;imageAspect=0;image=data:image/png,iVBORw0KGgoAAAANSUhEUgAAADEAAAA2CAMAAAEuQLEAAAAAAXNSR0IArs4c6QAAAARnQU1BAACxjwv8YQUAAABjUExURQAAAGCA31CPz1WK1ViP11OM0lWP1VeN1lSP01WO1VaM1lSO1FWN1VaO1VSN1FWO1VaN1VWO1VaP1lSO1VWP1VaO1lWP1VWO1VWP1lWO1VWO1VWO1VWO1VWO1VWO1VWO1VWO1aJ7xuEAAAAgdFJOUwAIEBggKDA4QEhQWGBocHiAh4+Xn6evt7/Hz9ff5+/3v+H4wgAAAAlwSFlzAAAXEQAAFxEByibzPwAAA0ZJREFUOE+NVQkWojAMDYiA+wYIRST3P+X8pCkUxZn570m37JsEtPKhCr8T0ZFoJLrrlaHRL9uP3n4xYO+PB/xKsHKCi6qMiRJb5f110d3ZL4KTV+Yc0aA7ZR2gR3QBYN+otFQ+JngWn/DGdoLj3jYAaAIZq5KjHGdObKND4w+dHvTlJmYgLkwi9EokRmMplAQQg0D3UC7lxlbgvUshAEozPSgB4hMwKn2MgWuOCAxbZqgEdtHjfmSWgM/IcYP0PV52Bpr3FPhjayE0zEHinVl+AWfuU9Gr3XLrNPcFb2WhUohBqXYEcVnHT9tK7oHa0liBpvRbZ2Z1wYWQ/sFoESyeS0KcDVETJIziUDTsiyDCnW90mW1Y4Ll+XfDgFuoMjlH+xVcSarZIvmKmYuRxrryee3+o+NMW3Dg0RUQ8IXkvSpB4Th8eZleLTQiAPkQ1ntsKMDmfv8LRQ1JYebrdSBcJczKiZCoVWmqmHg3lor30mhJwp1pWI8Lgzep8O1Dv9cultVsiROdQYvLQe+2UFcy59chZHvZelrRSanJp1KL2BSMPWXjwi+vlmyETGbXqRmtZsVqEAX7ZmAy6moAA9nMLcIuXKMaLlzG6R+WEApxrz3BAvQGX7wJKGLaM3xUKXJllwP4N6ZMFXfDvX7iAuIGu238x5SJ9IktRk39hSk8O7+P9w5Pji/n9+ORKTz2I+XVZ8xvYqV/tycpmcfqN5FBjorFL0T5rnQPsj98ak5pbBPuzgxX5mCV91DqGG9foeY4aaULSDv08RCf0fMZfk3xmpLCx6Or1kGYsVVtHg2FTs0OLNI3zwx1z/sntzH1maYADh2KSIbeGSoa+wilFMk5mbSoe0KIeKcICnN/8DEpK8/keNwQdBr6FsC4kAI0XAmHxBALgTVfSvuf7MlM5s/0BVAslGD3ohu0BLVYsu7adug2e2DzxqKR/pCnLBccxytyOZX5PaCUgwpFNMwNAqqPEIcIhARiHKkkbP72+Qt6hYWEInPJh+AX01vK/WSI3q/kCFOD/4RMpWjD2ZsZu5JcNpw9IczVfou7M/Tq9IIG5g01rxRaK2x+9HLDtINMzyXbB/xM7zIn+CvL3ul+ryG6uWmtNIvoDRFM6U6sy+34AAAAASUVORK5CYII=;" vertex="1" parent="qDLfqHvrbTzxQEXoshhX-1">
          <mxGeometry x="70" y="732" width="49" height="54" as="geometry" />
        </mxCell>
        <mxCell id="qDLfqHvrbTzxQEXoshhX-33" value="DDoS" style="text;html=1;align=center;verticalAlign=middle;resizable=0;points=[];autosize=1;strokeColor=none;fillColor=none;" vertex="1" parent="qDLfqHvrbTzxQEXoshhX-1">
          <mxGeometry x="65" y="786" width="60" height="30" as="geometry" />
        </mxCell>
        <mxCell id="qDLfqHvrbTzxQEXoshhX-34" value="" style="shape=image;verticalLabelPosition=bottom;labelBackgroundColor=default;verticalAlign=top;aspect=fixed;imageAspect=0;image=data:image/png,iVBORw0KGgoAAAANSUhEUgAAADYAAAAmCAMAAAHPSqjiAAAAAXNSR0IArs4c6QAAAARnQU1BAACxjwv8YQUAAABjUExURQAAAJ+/YJ+/YJ+/VZe3WJm5WZq6Wpu7V5u7WJy8WZm5WZq5Wpq6WJq6WJu7WZu7WZu7Wpu7WZu7WZu7Wpy8Wpy8WZy8WZu7WZu7WZu7Wpu7WZu7WZy8WZu7WZu7WZu7WZu7WYJo1K8AAAAgdFJOUwAIEBggKDA4QEhQWGBocHiAh4+Xn6evt7/Hz9ff5+/3v+H4wgAAAAlwSFlzAAAXEQAAFxEByibzPwAAAl9JREFUOE+FlY2WqjAMhAMioqDCXgTEQuf9n/JO/4Qi7n7nWNuGlDSdFCEP04jUIhfzn6ciZ1HysrMObZrBdj2wbWJbM3JjR3VjEyaQi7r9M52TfYfoxSnzPYtxGBFwcyLH4ep7xMzOrusGoX2NurKGmmMGzlf01uADcwNOt2ydi2HpiZSSNr5LFH8+EqBwc5YcUD8DECXDkuPoezKvF5bDC7j7PmmAsCWAgZqciLRg2n2vZAuXm04k9cE7pklGThrqJLIQyMMETtKz+19gSNg+74E59yPmEMGbCn65wHUYHu9dRnRMScONrnPl0bM78QpGFxHL+jl1ElGucthF+bzzCKilADCGwAvglhyyFt2xcmEWCk7HJYwGzfFLBitnkjqd2YQ7jasgTmI8R/eoOaNxZaJnEo4oOUm/NnGl9q2sYWOSZn7b4AvvzW0po5XoHf1T8OP7W1hZRZShBVMPonaNFxe/ghPgikSFw2BCt4zOskNODQSGHR3scdbAdAs5qhRdKz/4zhWYN2rJZ3zuI+YJvSPdE75VhSEtJqwlsXDQGIsdS8LyNuhWQXe3TZi0P7hjmpu1b8m5p5X04HafVXTnlqb4DWcWmLZiJUcNHXJVLHWaqVdv7/GIig/b3V+i/Q6+ItNxq9NAy5Kyt97qBpPC3rXJVydSgrdKv1HLs5ak/8WJdKy6ydbqQo35dycrCRk2lzLl+HHhbGh4AdH145R+J9Hgp4J6ir5ff8GqstlgWKsPzV/wvPyuMurh8XFF71JHBZL2RnHP+lp8paw7I8t+u3x+7yfj/I15uIf3iPwHTC8yKFSGluMAAAAASUVORK5CYII=;" vertex="1" parent="qDLfqHvrbTzxQEXoshhX-1">
          <mxGeometry x="-80" y="130" width="54" height="38" as="geometry" />
        </mxCell>
        <mxCell id="qDLfqHvrbTzxQEXoshhX-35" value="" style="shape=image;verticalLabelPosition=bottom;labelBackgroundColor=default;verticalAlign=top;aspect=fixed;imageAspect=0;image=data:image/png,iVBORw0KGgoAAAANSUhEUgAAACQAAAArCAMAAAFQj+rpAAAAAXNSR0IArs4c6QAAAARnQU1BAACxjwv8YQUAAABgUExURQAAAJ+/YJ+/YJ+/VZe3WJm5WZq6Wpu7V5u7WJy8WZm5WZq5Wpq6WJq6WJu7WZu7Wpu7WZu7WZu7Wpy8Wpy8WZy8WZu7WZu7WZu7Wpu7WZu7WZy8WZu7WZu7WZu7WZu7WdR873EAAAAfdFJOUwAIEBggKDA4QEhQWGBocICHj5efp6+3v8fP19/n7/eclSivAAAACXBIWXMAABcRAAAXEQHKJvM/AAABeUlEQVQ4T4WUiZaDIAxF4zLWGbWbVlstvv//ywkQKGBb7zmagOGBSZSIDnwRQd8uxmVWsUStuR/1jSczM7IovswqphdLD2vK6WSxQ2oaYzAYo5nEsowTWSHybiJwRM7pvQ7oQ9zM4Gca72lqTBjFF86gPoohLOI40iU5OvEc9RSDWJFX+Fe1jMjF0xRqSQIqFkApA6FQqhD3RT+G5dAAz2R3nZ+nTb4HdYZYrQHgU2vo8COe4xQdW9O7ennGdHd6bGYWX0vhQKOkTphxlVhHhz/xHNPmNOurZy2bxHMLxJkYcE9kbjjC97KFI8rkJSZVqJv4jiHo7ZSO0wvMSU1jRqz8nCPTvIc8zCtlapOOEL3bXQFnGb+hBVRVtnWaw4DT3oF1/XH/osBkN6BPmyQmH9PW21DOWO1v6DO80R6zhH7i8Nw7SXYFlkoG76kWwP9F33PZFfmZd0WOX0UKLr8m/Y5CckAnlbvlSw056JdNi/TjiijtdirpF6J/9DsgEXcbw4YAAAAASUVORK5CYII=;" vertex="1" parent="qDLfqHvrbTzxQEXoshhX-1">
          <mxGeometry x="-6" y="400" width="36" height="43" as="geometry" />
        </mxCell>
        <mxCell id="qDLfqHvrbTzxQEXoshhX-36" value="" style="shape=image;verticalLabelPosition=bottom;labelBackgroundColor=default;verticalAlign=top;aspect=fixed;imageAspect=0;image=data:image/png,iVBORw0KGgoAAAANSUhEUgAAADAAAAAvCAMAAAHlW4ltAAAAAXNSR0IArs4c6QAAAARnQU1BAACxjwv8YQUAAABjUExURQAAAJ+/YJ+/YJ+/VZe3WJm5WZq6Wpu7V5u7WJy8WZm5WZq5Wpq6WJq6WJu7WZu7WZu7Wpu7WZu7WZu7Wpy8Wpy8WZy8WZu7WZu7WZu7Wpu7WZu7WZy8WZu7WZu7WZu7WZu7WYJo1K8AAAAgdFJOUwAIEBggKDA4QEhQWGBocHiAh4+Xn6evt7/Hz9ff5+/3v+H4wgAAAAlwSFlzAAAXEQAAFxEByibzPwAAAwlJREFUOE+NlIua4iAMhdPr1NoqVqu9N+//lHsSoJXq7O7/zSAFEkI4gUAnzRP/LB1hlGb70p7Mm6t+EjXut9a21D9dlhClOqbGsbabn2ilh+vqaE0X66iSJWumfSxTDymXZDbTrNssn3dpl1jaVRrZ/Qdmto+v89ueRD09VuoxwDgV07mgi3xgOdOEf/mgzHY8JyTFhyPDUb/35WfIi1US4pmY7+ZsemabEcviwlPynBGX0L8Pg9hEEg2t2PUDzug0kUGvJC6KYiBuNXT8DZXeCg5hjJGjtG7icUNOJSc2XrSrnXADBy4zwmMa4T7g6szNudKOh+HesnDhekQvXFhA3TFPL5/GN673rjO5+9iomHtTmBczwtmJeRMG9KBSVUqfTsvkk5qzKsOzyO0ryGTARIPKfN416UAqoWMr3gMnDLYqwCOaXNXEAI0V5ZMqdU9djYlcLrjU2mBKrUiqTowuRMhhgxtsMa2u80UmJq05W00paU5yvUbkYNkncoRKF3VlBecn1ORpqN9u6x0sz8TkSCGD68U4Ceww5EQJR9g6oLPphVaCa7M1LbScvBdFr1pXCh5cT64zcPxkviEtJ6jhKJT0NTJ3SNsvFA2qcWe6fysrz2nAkv5dSUnVrszjQcuWDDvfA3l54mbl6RhpCT9f5C/ka0Ux6iPYeeJxy80n2fCKkJfF3i+omcO6/CBbfyiZ2eXqYhPyD6CWgfVZrnj+SzgBHeOFilZopBWZCPELIrNMLTTK40OUCkQYCXOKcsYaSNfSYFMMKhA6+tFgI1clGX7giZGHcLF5jlbxGhhQjAMDNTjhvZ/1fTK2wo1UJ0ulgVoeURiXekY1SJlxENkyWtWtbuR3ELTfqBv5LHmiG8IC5zmlZNRK+zCgET7VoOFWTu5T5Pg0oNuMWJAlyShKC0/B/zGyPiBPHqKk+w8mX4ENz3HU/15UFmhJXzgB4m6pHt2dfqcJBX5H9UQ/n++tI8Lyzb0Dmp2Dd36nXFjlcCTBNtzVQWDxVd4EL8Av5A1K+52pCW6J6A86mz/DKqDx9gAAAABJRU5ErkJggg==;" vertex="1" parent="qDLfqHvrbTzxQEXoshhX-1">
          <mxGeometry x="-9" y="583.5" width="48" height="47" as="geometry" />
        </mxCell>
        <mxCell id="qDLfqHvrbTzxQEXoshhX-37" value="Direct Connect" style="text;html=1;align=center;verticalAlign=middle;resizable=0;points=[];autosize=1;strokeColor=none;fillColor=none;" vertex="1" parent="qDLfqHvrbTzxQEXoshhX-1">
          <mxGeometry x="-38" y="443" width="100" height="30" as="geometry" />
        </mxCell>
        <mxCell id="qDLfqHvrbTzxQEXoshhX-38" value="VPN" style="text;html=1;align=center;verticalAlign=middle;resizable=0;points=[];autosize=1;strokeColor=none;fillColor=none;" vertex="1" parent="qDLfqHvrbTzxQEXoshhX-1">
          <mxGeometry x="-10" y="630.5" width="50" height="30" as="geometry" />
        </mxCell>
        <mxCell id="qDLfqHvrbTzxQEXoshhX-39" value="VPC" style="text;html=1;align=center;verticalAlign=middle;resizable=0;points=[];autosize=1;strokeColor=none;fillColor=none;" vertex="1" parent="qDLfqHvrbTzxQEXoshhX-1">
          <mxGeometry x="-78" y="168" width="50" height="30" as="geometry" />
        </mxCell>
        <mxCell id="qDLfqHvrbTzxQEXoshhX-40" style="edgeStyle=orthogonalEdgeStyle;rounded=0;orthogonalLoop=1;jettySize=auto;html=1;exitX=0.87;exitY=0.65;exitDx=0;exitDy=0;exitPerimeter=0;startArrow=none;startFill=0;endArrow=classic;endFill=1;entryX=0;entryY=0.5;entryDx=0;entryDy=0;" edge="1" parent="qDLfqHvrbTzxQEXoshhX-1" source="qDLfqHvrbTzxQEXoshhX-41" target="qDLfqHvrbTzxQEXoshhX-28">
          <mxGeometry relative="1" as="geometry">
            <mxPoint x="-240" y="250.00000000000023" as="targetPoint" />
          </mxGeometry>
        </mxCell>
        <mxCell id="qDLfqHvrbTzxQEXoshhX-41" value="" style="verticalLabelPosition=bottom;html=1;verticalAlign=top;align=center;strokeColor=none;fillColor=#00BEF2;shape=mxgraph.azure.user;" vertex="1" parent="qDLfqHvrbTzxQEXoshhX-1">
          <mxGeometry x="-274.75" y="218" width="47.5" height="50" as="geometry" />
        </mxCell>
        <mxCell id="qDLfqHvrbTzxQEXoshhX-42" value="" style="shape=image;verticalLabelPosition=bottom;labelBackgroundColor=default;verticalAlign=top;aspect=fixed;imageAspect=0;image=https://ehs.oregonstate.edu/sites/ehs.oregonstate.edu/files/aed-icon-web.png;" vertex="1" parent="qDLfqHvrbTzxQEXoshhX-1">
          <mxGeometry x="-289.6" y="359.00000000000006" width="80" height="106.29" as="geometry" />
        </mxCell>
        <mxCell id="qDLfqHvrbTzxQEXoshhX-43" value="RabbitMQ" style="text;html=1;align=center;verticalAlign=middle;resizable=0;points=[];autosize=1;strokeColor=none;fillColor=none;" vertex="1" parent="qDLfqHvrbTzxQEXoshhX-1">
          <mxGeometry x="817" y="359.5" width="80" height="30" as="geometry" />
        </mxCell>
        <mxCell id="qDLfqHvrbTzxQEXoshhX-45" value="subscription&amp;nbsp;" style="text;html=1;align=center;verticalAlign=middle;resizable=0;points=[];autosize=1;strokeColor=none;fillColor=none;" vertex="1" parent="qDLfqHvrbTzxQEXoshhX-1">
          <mxGeometry x="532" y="325" width="90" height="30" as="geometry" />
        </mxCell>
        <mxCell id="qDLfqHvrbTzxQEXoshhX-47" value="" style="edgeStyle=orthogonalEdgeStyle;rounded=0;orthogonalLoop=1;jettySize=auto;html=1;endArrow=open;endFill=0;strokeWidth=2;" edge="1" parent="qDLfqHvrbTzxQEXoshhX-1" source="qDLfqHvrbTzxQEXoshhX-42">
          <mxGeometry relative="1" as="geometry">
            <Array as="points">
              <mxPoint x="-3" y="423" />
            </Array>
            <mxPoint x="-190" y="422" as="sourcePoint" />
            <mxPoint x="-3" y="422" as="targetPoint" />
          </mxGeometry>
        </mxCell>
        <mxCell id="qDLfqHvrbTzxQEXoshhX-48" value="" style="edgeStyle=orthogonalEdgeStyle;rounded=0;orthogonalLoop=1;jettySize=auto;html=1;endArrow=open;endFill=0;strokeWidth=2;" edge="1" parent="qDLfqHvrbTzxQEXoshhX-1">
          <mxGeometry relative="1" as="geometry">
            <Array as="points">
              <mxPoint x="-90" y="614" />
              <mxPoint x="-90" y="614" />
            </Array>
            <mxPoint x="-215.5999999999999" y="613.125" as="sourcePoint" />
            <mxPoint x="-9" y="613.125" as="targetPoint" />
          </mxGeometry>
        </mxCell>
        <mxCell id="qDLfqHvrbTzxQEXoshhX-49" value="" style="shadow=0;dashed=0;html=1;strokeColor=none;fillColor=#4495D1;labelPosition=center;verticalLabelPosition=bottom;verticalAlign=top;align=center;outlineConnect=0;shape=mxgraph.veeam.portal_admin;" vertex="1" parent="qDLfqHvrbTzxQEXoshhX-1">
          <mxGeometry x="-260" y="588.7" width="44.4" height="48.8" as="geometry" />
        </mxCell>
        <mxCell id="qDLfqHvrbTzxQEXoshhX-50" value="Admin" style="text;html=1;align=center;verticalAlign=middle;resizable=0;points=[];autosize=1;strokeColor=none;fillColor=none;" vertex="1" parent="qDLfqHvrbTzxQEXoshhX-1">
          <mxGeometry x="-270.6" y="637.5" width="60" height="30" as="geometry" />
        </mxCell>
        <mxCell id="qDLfqHvrbTzxQEXoshhX-51" value="User" style="text;html=1;align=center;verticalAlign=middle;resizable=0;points=[];autosize=1;strokeColor=none;fillColor=none;" vertex="1" parent="qDLfqHvrbTzxQEXoshhX-1">
          <mxGeometry x="-274.6" y="268" width="50" height="30" as="geometry" />
        </mxCell>
        <mxCell id="xC0fP6OKoAy3Hj09utEd-13" value="" style="rounded=0;whiteSpace=wrap;html=1;labelBackgroundColor=none;fillColor=none;dashed=1;container=1;pointerEvents=0;collapsible=0;recursiveResize=0;strokeColor=#FF3333;" vertex="1" parent="qDLfqHvrbTzxQEXoshhX-1">
          <mxGeometry x="278" y="237.5" width="442" height="282.5" as="geometry" />
        </mxCell>
        <mxCell id="xC0fP6OKoAy3Hj09utEd-27" value="" style="shape=image;verticalLabelPosition=bottom;labelBackgroundColor=default;verticalAlign=top;aspect=fixed;imageAspect=0;image=data:image/png,iVBORw0KGgoAAAANSUhEUgAAACsAAAAtCAMAAAF33VJ5AAAAAXNSR0IArs4c6QAAAARnQU1BAACxjwv8YQUAAABjUExURQAAAIBAn3Awn3U1n3Awn3Mzn3Awn3Iyn3Awn3Eyn3Awn3Exn3Awn3Exn3Awn3Exn3Awn3ExoXAwoHExoHAwoHExoHAwoHExoHAwoHExoHAwoHExoHAwoHExoHAwoHExoHAwoB+bCr4AAAAgdFJOUwAIEBggKDA4QEhQWGBocHiAh4+Xn6evt7/Hz9ff5+/3v+H4wgAAAAlwSFlzAAAXEQAAFxEByibzPwAAAqxJREFUOE+tlOu2ojAMhQMiKiLeELCUkvd/ytlJWlCPs+b8mG8t2zSkt2RXSrD+Znpcgw3Q9NKN0nzjQlTzXqwYrp0YR5o8jFKH56f6qN5RiehJ7CcaLA4rzkl9wTYpgbMI4+1sBp1k4eCo7pepElPobhVtzUbQpN9gL7zaN/ycXK8h2sUbPitpxxPWscnAawpW8pHHHL2XLSJ37szgJh/s1jmHzHz4nM1oMy7oEePo3Mj+5GwRfAESpP2TajXMXVM+b8KWNM+asOjWwaebbg0GTUyWBPDG7IWc7WQ9P7QXboxzL2QBVd3yLPf8yuEQDeXELPs1Rb0muOJ5W8ia5bFLB9gwS3Wgm6c7IEl6jIk16ZheFnd0jDN3up7RN3KK3lO75htTt22rOpEbCtnoZJtHXsoW0TvAlWNagelAvbXllg68NaGpt61EozQ0mgYU37yo3fWMmqkXruQ1fuG92oWp0FQnL+Wqam91WLwo5tDHCeJyLtoLg8gypIwZezbhlLxWOp95F01UImrZM6S+cmEou+NrHC7cOOBd/5ZqPAfL4w+aiQ2VOs6NrTK3ai5RDhLzotJdRvUY+s91s0tgdqb3yCXUU0gqrbm3hO4d8xTLvNDIx6sWBzLBjpBE7nm+fRX5w4UurkZZC1mXPC8ZjWzOq9yzye19Oq97LxBV/oylTuPFFvRYuPAxhOOzFTbtc92j6Nw+v4S756UaL7Ht9HbByk+qX6WQqNfYmrImPGS8uTPuu49ZAPLaPmKFsk+J/ncsfLH/T7HUhLsWRWPzm3+5qcb6VdxC0SGZjKrfXzQk/zbyLioO68LGcXj79wL5ZE9jO/P09kZ+cISmkwI3LVQ0fBd/0eFbl96yIbKcowYWGmg6aeGDGnu5dNQdHkkQGf0V1BY8pWnfEkFE9AfmSS9gC6c0fAAAAABJRU5ErkJggg==;" vertex="1" parent="qDLfqHvrbTzxQEXoshhX-1">
          <mxGeometry x="558.5" y="400" width="43" height="45" as="geometry" />
        </mxCell>
        <mxCell id="xC0fP6OKoAy3Hj09utEd-29" value="" style="shape=image;verticalLabelPosition=bottom;labelBackgroundColor=default;verticalAlign=top;aspect=fixed;imageAspect=0;image=data:image/png,iVBORw0KGgoAAAANSUhEUgAAACsAAAAtCAMAAAF33VJ5AAAAAXNSR0IArs4c6QAAAARnQU1BAACxjwv8YQUAAABjUExURQAAAIBAn3Awn3U1n3Awn3Mzn3Awn3Iyn3Awn3Eyn3Awn3Exn3Awn3Exn3Awn3Exn3Awn3ExoXAwoHExoHAwoHExoHAwoHExoHAwoHExoHAwoHExoHAwoHExoHAwoHExoHAwoB+bCr4AAAAgdFJOUwAIEBggKDA4QEhQWGBocHiAh4+Xn6evt7/Hz9ff5+/3v+H4wgAAAAlwSFlzAAAXEQAAFxEByibzPwAAAqxJREFUOE+tlOu2ojAMhQMiKiLeELCUkvd/ytlJWlCPs+b8mG8t2zSkt2RXSrD+Znpcgw3Q9NKN0nzjQlTzXqwYrp0YR5o8jFKH56f6qN5RiehJ7CcaLA4rzkl9wTYpgbMI4+1sBp1k4eCo7pepElPobhVtzUbQpN9gL7zaN/ycXK8h2sUbPitpxxPWscnAawpW8pHHHL2XLSJ37szgJh/s1jmHzHz4nM1oMy7oEePo3Mj+5GwRfAESpP2TajXMXVM+b8KWNM+asOjWwaebbg0GTUyWBPDG7IWc7WQ9P7QXboxzL2QBVd3yLPf8yuEQDeXELPs1Rb0muOJ5W8ia5bFLB9gwS3Wgm6c7IEl6jIk16ZheFnd0jDN3up7RN3KK3lO75htTt22rOpEbCtnoZJtHXsoW0TvAlWNagelAvbXllg68NaGpt61EozQ0mgYU37yo3fWMmqkXruQ1fuG92oWp0FQnL+Wqam91WLwo5tDHCeJyLtoLg8gypIwZezbhlLxWOp95F01UImrZM6S+cmEou+NrHC7cOOBd/5ZqPAfL4w+aiQ2VOs6NrTK3ai5RDhLzotJdRvUY+s91s0tgdqb3yCXUU0gqrbm3hO4d8xTLvNDIx6sWBzLBjpBE7nm+fRX5w4UurkZZC1mXPC8ZjWzOq9yzye19Oq97LxBV/oylTuPFFvRYuPAxhOOzFTbtc92j6Nw+v4S756UaL7Ht9HbByk+qX6WQqNfYmrImPGS8uTPuu49ZAPLaPmKFsk+J/ncsfLH/T7HUhLsWRWPzm3+5qcb6VdxC0SGZjKrfXzQk/zbyLioO68LGcXj79wL5ZE9jO/P09kZ+cISmkwI3LVQ0fBd/0eFbl96yIbKcowYWGmg6aeGDGnu5dNQdHkkQGf0V1BY8pWnfEkFE9AfmSS9gC6c0fAAAAABJRU5ErkJggg==;" vertex="1" parent="qDLfqHvrbTzxQEXoshhX-1">
          <mxGeometry x="398.5" y="400" width="43" height="45" as="geometry" />
        </mxCell>
        <mxCell id="rJICmP8DIEkyBmMFmKoL-0" value="" style="shape=image;verticalLabelPosition=bottom;labelBackgroundColor=default;verticalAlign=top;aspect=fixed;imageAspect=0;image=data:image/png,iVBORw0KGgoAAAANSUhEUgAAADYAAAAvCAMAAAHoRfkqAAAAAXNSR0IArs4c6QAAAARnQU1BAACxjwv8YQUAAABjUExURQAAAJ+AYI+PUJWKVZeHWJOMU5WKVZKJUpOLVJWKVZOJU5SIVJWKVZOJU5SJVJOKU5OJVJWKVZSLVJWKVJWKVZSLVJWKVZSKVJSLVJWKVZSKVJSKVJWKVZSKVJSKVJSKVJSKVABvIiUAAAAgdFJOUwAIEBggKDA4QEhQWGBocHiAh4+Xn6evt7/Hz9ff5+/3v+H4wgAAAAlwSFlzAAAXEQAAFxEByibzPwAAAeJJREFUOE/NlQtzwiAMx9NZtXZM2cNJH0K+/6dcCEFpKafucbffXQvJn7SEBgqADCCswUO9F2nFFvwYukwYTqxVUM+nOKq+jEYYeDxALx4mPBRHZVLTd+slcxYbcLGz5pkEPuBTvAHNl797YhsoWP6V0TIqtaaacJQ2sOVZgPb3OJNPWh/PGge9iKWEpw9NuGoIIygIKxa4V2uxg4onFj1XjbFmV3NuC9peV7l2NpHuKXiuWg7CBlUjsEdJ6rRQbAvGQo0rMTLcq3SEN59STrf1xSHPn3HCJuaVo21ZU5SfdDXl+awlbU+i+fTGtEJ+TUtyTzXKdAUnynoMjokWEU+mtbTeJU1TNZW0Su+LmifXeqkWY1xwJFrGd7WDBTdIlTWhiuSz6yO2tFVDfRAHkqRLK7fjoUKFNZxlMTO2+Fp8O+znknLyhvuhCvhAN5nQbTYW6VuVt18JxUfzr4T1vek7ahtnjOX/RsZSGO3Gxq+1optZnsi/CHtyumkGOuoP55ari46YlEJYRk3FlXAzrGq1psJ9NEzTj8Coh8NeLH2854fDhL8L28gmnjDdI0thd/CDsCPa4o9qmdVI25ROiQUuh7s/yTPeRJzzjsir0CCaij33QRMZKujQzar4JpR3cTYAXyNZR59Jj0DRAAAAAElFTkSuQmCC;" vertex="1" parent="qDLfqHvrbTzxQEXoshhX-1">
          <mxGeometry x="830" y="312.5" width="54" height="47" as="geometry" />
        </mxCell>
        <mxCell id="rJICmP8DIEkyBmMFmKoL-1" value="" style="shape=image;verticalLabelPosition=bottom;labelBackgroundColor=default;verticalAlign=top;aspect=fixed;imageAspect=0;image=data:image/png,iVBORw0KGgoAAAANSUhEUgAAACsAAAAtCAMAAAF33VJ5AAAAAXNSR0IArs4c6QAAAARnQU1BAACxjwv8YQUAAABjUExURQAAAIBAn3Awn3U1n3Awn3Mzn3Awn3Iyn3Awn3Eyn3Awn3Exn3Awn3Exn3Awn3Exn3Awn3ExoXAwoHExoHAwoHExoHAwoHExoHAwoHExoHAwoHExoHAwoHExoHAwoHExoHAwoB+bCr4AAAAgdFJOUwAIEBggKDA4QEhQWGBocHiAh4+Xn6evt7/Hz9ff5+/3v+H4wgAAAAlwSFlzAAAXEQAAFxEByibzPwAAAqxJREFUOE+tlOu2ojAMhQMiKiLeELCUkvd/ytlJWlCPs+b8mG8t2zSkt2RXSrD+Znpcgw3Q9NKN0nzjQlTzXqwYrp0YR5o8jFKH56f6qN5RiehJ7CcaLA4rzkl9wTYpgbMI4+1sBp1k4eCo7pepElPobhVtzUbQpN9gL7zaN/ycXK8h2sUbPitpxxPWscnAawpW8pHHHL2XLSJ37szgJh/s1jmHzHz4nM1oMy7oEePo3Mj+5GwRfAESpP2TajXMXVM+b8KWNM+asOjWwaebbg0GTUyWBPDG7IWc7WQ9P7QXboxzL2QBVd3yLPf8yuEQDeXELPs1Rb0muOJ5W8ia5bFLB9gwS3Wgm6c7IEl6jIk16ZheFnd0jDN3up7RN3KK3lO75htTt22rOpEbCtnoZJtHXsoW0TvAlWNagelAvbXllg68NaGpt61EozQ0mgYU37yo3fWMmqkXruQ1fuG92oWp0FQnL+Wqam91WLwo5tDHCeJyLtoLg8gypIwZezbhlLxWOp95F01UImrZM6S+cmEou+NrHC7cOOBd/5ZqPAfL4w+aiQ2VOs6NrTK3ai5RDhLzotJdRvUY+s91s0tgdqb3yCXUU0gqrbm3hO4d8xTLvNDIx6sWBzLBjpBE7nm+fRX5w4UurkZZC1mXPC8ZjWzOq9yzye19Oq97LxBV/oylTuPFFvRYuPAxhOOzFTbtc92j6Nw+v4S756UaL7Ht9HbByk+qX6WQqNfYmrImPGS8uTPuu49ZAPLaPmKFsk+J/ncsfLH/T7HUhLsWRWPzm3+5qcb6VdxC0SGZjKrfXzQk/zbyLioO68LGcXj79wL5ZE9jO/P09kZ+cISmkwI3LVQ0fBd/0eFbl96yIbKcowYWGmg6aeGDGnu5dNQdHkkQGf0V1BY8pWnfEkFE9AfmSS9gC6c0fAAAAABJRU5ErkJggg==;" vertex="1" parent="qDLfqHvrbTzxQEXoshhX-1">
          <mxGeometry x="557" y="280" width="43" height="45" as="geometry" />
        </mxCell>
        <mxCell id="rJICmP8DIEkyBmMFmKoL-2" value="" style="shape=image;verticalLabelPosition=bottom;labelBackgroundColor=default;verticalAlign=top;aspect=fixed;imageAspect=0;image=data:image/png,iVBORw0KGgoAAAANSUhEUgAAACsAAAAtCAMAAAF33VJ5AAAAAXNSR0IArs4c6QAAAARnQU1BAACxjwv8YQUAAABjUExURQAAAIBAn3Awn3U1n3Awn3Mzn3Awn3Iyn3Awn3Eyn3Awn3Exn3Awn3Exn3Awn3Exn3Awn3ExoXAwoHExoHAwoHExoHAwoHExoHAwoHExoHAwoHExoHAwoHExoHAwoHExoHAwoB+bCr4AAAAgdFJOUwAIEBggKDA4QEhQWGBocHiAh4+Xn6evt7/Hz9ff5+/3v+H4wgAAAAlwSFlzAAAXEQAAFxEByibzPwAAAqxJREFUOE+tlOu2ojAMhQMiKiLeELCUkvd/ytlJWlCPs+b8mG8t2zSkt2RXSrD+Znpcgw3Q9NKN0nzjQlTzXqwYrp0YR5o8jFKH56f6qN5RiehJ7CcaLA4rzkl9wTYpgbMI4+1sBp1k4eCo7pepElPobhVtzUbQpN9gL7zaN/ycXK8h2sUbPitpxxPWscnAawpW8pHHHL2XLSJ37szgJh/s1jmHzHz4nM1oMy7oEePo3Mj+5GwRfAESpP2TajXMXVM+b8KWNM+asOjWwaebbg0GTUyWBPDG7IWc7WQ9P7QXboxzL2QBVd3yLPf8yuEQDeXELPs1Rb0muOJ5W8ia5bFLB9gwS3Wgm6c7IEl6jIk16ZheFnd0jDN3up7RN3KK3lO75htTt22rOpEbCtnoZJtHXsoW0TvAlWNagelAvbXllg68NaGpt61EozQ0mgYU37yo3fWMmqkXruQ1fuG92oWp0FQnL+Wqam91WLwo5tDHCeJyLtoLg8gypIwZezbhlLxWOp95F01UImrZM6S+cmEou+NrHC7cOOBd/5ZqPAfL4w+aiQ2VOs6NrTK3ai5RDhLzotJdRvUY+s91s0tgdqb3yCXUU0gqrbm3hO4d8xTLvNDIx6sWBzLBjpBE7nm+fRX5w4UurkZZC1mXPC8ZjWzOq9yzye19Oq97LxBV/oylTuPFFvRYuPAxhOOzFTbtc92j6Nw+v4S756UaL7Ht9HbByk+qX6WQqNfYmrImPGS8uTPuu49ZAPLaPmKFsk+J/ncsfLH/T7HUhLsWRWPzm3+5qcb6VdxC0SGZjKrfXzQk/zbyLioO68LGcXj79wL5ZE9jO/P09kZ+cISmkwI3LVQ0fBd/0eFbl96yIbKcowYWGmg6aeGDGnu5dNQdHkkQGf0V1BY8pWnfEkFE9AfmSS9gC6c0fAAAAABJRU5ErkJggg==;" vertex="1" parent="qDLfqHvrbTzxQEXoshhX-1">
          <mxGeometry x="398.5" y="280" width="43" height="45" as="geometry" />
        </mxCell>
        <mxCell id="rJICmP8DIEkyBmMFmKoL-3" value="" style="shape=image;verticalLabelPosition=bottom;labelBackgroundColor=default;verticalAlign=top;aspect=fixed;imageAspect=0;image=data:image/png,iVBORw0KGgoAAAANSUhEUgAAAC4AAAAtCAMAAAGR9Jk9AAAAAXNSR0IArs4c6QAAAARnQU1BAACxjwv8YQUAAABjUExURQAAAIBAn3Awn3U1n3Awn3Mzn3Awn3Iyn3Awn3Eyn3Awn3Exn3Awn3Exn3Awn3Exn3Awn3ExoXAwoHExoHAwoHExoHAwoHExoHAwoHExoHAwoHExoHAwoHExoHAwoHExoHAwoB+bCr4AAAAgdFJOUwAIEBggKDA4QEhQWGBocHiAh4+Xn6evt7/Hz9ff5+/3v+H4wgAAAAlwSFlzAAAXEQAAFxEByibzPwAAAi1JREFUOE+NlY126jAIgGnNqlG3e+ets3Zpw/s/5QVC/tp4tu9slgChBIgCIP15/uwh0NH/QySElR/fsoCJPVkgJT2dKDOHYGTbHAQGRUu+HJ3FwkZIaH5h2OwHFRFlLY8DIqdhEW9wZq1i5F8yZJm3elmIqBGtiGFRyoUP7eVQEoiFXo8W3ZljSOgdcQaDlxNxDBYAXpy+6KC8WTCoJSOy3nDYXlMk/XLg5xDr2AVL+LRlmTpJmEmCMlxUaPnP0tAUX9/sUj49n9iE+pV5coAcDunsKpZcSfm5UlXwqpqFF9MbneApFVE1DLw4o90lLxgZPWXC0BUmDI7gBpiTIesd5zvnpqp+Dcd4qCHqVZ0M2oekJkM8CeHjZWCyoVIDjGowxU4hpuhltBPjHxXqQPd3FYhGPiHTJRr0xEt8CVWHiRXK9Zm5BWot9fC0xWsKPXzlEaj0BQcP/lPlEk/JTjwBGK2yoLYDnGVOIrdgjtCVyngq0D+c1PQjN3zSa3LOGUNzuIfucMPduPV8nNc8epGWu3FOQvf7DXv3YZEZFfrZx1ENbN2HNTsz3aPaQO5D/vbbOjPVhlOx167hq2BL90iXN2N925nZbeheRE7csWrEMtUXYsvd132z/vk6/oh/VcqcfnfU7NMqZF8WsuvrNhm3VI3f9HU/BOY7TwqNWj01rRGLEd9curyRljsfzl9t4xwv3InLtVUlch9x1MWPfPCPRHV71800WflJiNzgP14/LKBVpyUWAAAAAElFTkSuQmCC;" vertex="1" parent="qDLfqHvrbTzxQEXoshhX-1">
          <mxGeometry x="280" y="240" width="46" height="45" as="geometry" />
        </mxCell>
        <mxCell id="rJICmP8DIEkyBmMFmKoL-4" value="CCE" style="text;html=1;align=center;verticalAlign=middle;resizable=0;points=[];autosize=1;strokeColor=none;fillColor=none;" vertex="1" parent="qDLfqHvrbTzxQEXoshhX-1">
          <mxGeometry x="278" y="287.5" width="50" height="30" as="geometry" />
        </mxCell>
        <mxCell id="qDLfqHvrbTzxQEXoshhX-7" value="FTP&lt;br&gt;(ECS/OBS)" style="text;html=1;align=center;verticalAlign=middle;resizable=0;points=[];autosize=1;strokeColor=none;fillColor=none;" vertex="1" parent="qDLfqHvrbTzxQEXoshhX-1">
          <mxGeometry x="540" y="445" width="80" height="40" as="geometry" />
        </mxCell>
        <mxCell id="qDLfqHvrbTzxQEXoshhX-9" value="Messages Sight" style="text;html=1;align=center;verticalAlign=middle;resizable=0;points=[];autosize=1;strokeColor=none;fillColor=none;" vertex="1" parent="qDLfqHvrbTzxQEXoshhX-1">
          <mxGeometry x="365" y="443" width="110" height="30" as="geometry" />
        </mxCell>
      </root>
    </mxGraphModel>
  </diagram>
</mxfile>
